<svg xmlns="http://www.w3.org/2000/svg">
    <symbol id="dbc" viewBox="-693 694.3 30 30">
       <title>&#x5F85;&#x8865;&#x5145;</title> <desc>Created with Sketch.</desc> <g id="Page-1"> <g id="Artboard" transform="translate(-831.000000, -34.000000)"> <path id="&#x5F85;&#x8865;&#x5145;" d="M149.5,746.5L149.5,746.5c0.5,0,1-0.4,1-1v-2.9h2.9c0.5,0,1-0.4,1-1c0-0.5-0.4-1-1-1h-2.9v-2.9
			c0-0.5-0.4-1-1-1h0c-0.5,0-1,0.4-1,1v2.9h-2.9c-0.5,0-1,0.4-1,1c0,0.5,0.4,1,1,1h2.9v2.9C148.5,746.1,149,746.5,149.5,746.5
			L149.5,746.5z M166.2,738.8c-0.9-0.5-2-0.3-2.5,0.5l-3,5.3l3.3,2l3-5.3C167.5,740.4,167,739.3,166.2,738.8L166.2,738.8z
			 M156,752.9c-0.3,0.6-1,3.1-0.7,4.2l-0.3,0.6c-0.1,0.2,0,0.5,0.2,0.6c0,0,0.1,0,0.1,0.1c0.2,0,0.4,0,0.4-0.2l0.3-0.6
			c1.1-0.3,2.8-2,3.2-2.7l4.1-7.3l-3.3-2L156,752.9z M157.9,743.9c-0.2,0.4-0.1,0.9,0.3,1.2c0.4,0.2,0.9,0.1,1.1-0.3l3-5.3
			c0.2-0.4,0.1-0.9-0.3-1.2c-0.4-0.2-0.9-0.1-1.1,0.3L157.9,743.9z M159.1,735v3.5l0.7-1.2c0.3-0.5,0.7-0.9,1.2-1.1v-2.1l-1.9-1.9v0
			l-1.9-1.9h0l-1.9-1.9h-15.3c-1.1,0-1.9,0.9-1.9,1.9v23.9c0,1.1,0.9,1.9,1.9,1.9c0,0,8.2,0,13.9,0l0.3-1.9h-14.3v-23.9h14.4v3.5
			c0,0.7,0.6,1.3,1.3,1.3H159.1z"/> </g> </g> 
    </symbol>
    <symbol id="doctor_ask" viewBox="0 0 1024 1024">
      <path d="M522.968819 958.797999l-166.605505-0.138146c-57.421804-0.092098-105.825211-0.206708-149.71993-0.022513-0.092098 0-0.184195 0-0.276293 0-44.400233 0-73.479525-31.748075-75.872015-82.95841-0.046049-141.392264 86.36295-236.358149 243.306398-268.497127 5.935176-0.230244 10.674107 0.575098 15.46011 2.369977-42.836621-30.413684-77.298504-77.252455-96.439446-134.720308-20.658506-13.412474-33.772174-36.026518-39.201837-67.382667-5.337565-31.057343 2.346441-52.521191 13.06762-66.11786L266.687922 132.348284l11.180644-6.901177c4.095271-2.5071 101.729939-61.838394 220.484623-61.838394 113.969705 0 225.822189 58.595536 230.515071 61.080124l12.515035 6.64842 0 203.599048c13.573133 12.81384 25.260314 35.980469 18.910699 72.351841-6.579859 37.959543-24.385387 57.766658-41.08779 68.095911-34.738176 103.685477-119.352295 172.633802-213.07691 172.633802-36.440957 0-71.547523-10.42135-102.83511-29.262464 18.956747 18.3356 33.219589 58.848293 55.351656 124.758422 14.033621 41.847084 37.360909 111.254873 51.302433 123.471103 13.573133-11.4334 37.038568-81.393775 51.164287-123.471103 32.069393-95.472422 45.596478-138.102335 80.749092-136.813992C802.90037 639.320781 889.308345 734.287689 889.308345 874.574782c-2.438539 52.29197-31.471782 84.062558-75.872015 84.062558-0.092098 0-0.184195 0-0.230244 0l-0.046049 0c-44.032866-0.11461-92.298126-0.023536-149.765979 0.022513L522.968819 958.797999zM543.903617 899.328559l0 12.33084 119.444393-0.11461c57.513902-0.092098 105.825211-0.206708 149.996223-0.022513 6.856152 0.436952 27.054169 0.252757 28.895097-38.051641-0.046049-115.027803-66.071811-188.714036-196.329481-218.11567-10.996448 16.47216-28.296463 67.958788-40.121789 103.156428C582.093405 829.046866 565.160757 877.128955 543.903617 899.328559zM262.500553 911.430178c28.756951 0 59.722196 0.068562 93.954859 0.11461l119.398344 0.11461 0-12.33084c-21.25714-22.223141-38.188764-70.281693-61.884442-140.817166-11.870352-35.45142-29.354562-87.443561-40.352033-103.524818-128.785132 28.388561-196.053188 102.397135-196.053188 219.587184 1.794879 36.970006 21.165042 37.20025 28.941146 36.94647C224.356814 911.452691 242.899122 911.430178 262.500553 911.430178zM299.17073 383.591445c-0.36839 4.163833-0.230244 9.385764 0.919952 15.873526 5.15337 29.999245 18.082844 36.050054 22.361287 38.028105l9.56996 4.486174 3.037173 10.122545c26.594705 89.008196 95.335299 148.799978 171.069167 148.799978 75.641771 0 144.336316-59.722196 171.023118-148.592246l3.128247-10.536984 10.122545-4.348028c4.508687-1.932002 18.173918-7.822153 23.511483-38.2123 1.150196-6.718005 1.242294-12.078083 0.781806-16.310477l-12.883425 16.632819-15.506159-39.638789c-3.358491-9.961886-9.800203-20.475334-16.426111-26.7789-0.552585-0.575098-1.150196-1.104147-1.702782-1.656733-30.367635-17.944697-83.371826-39.247886-164.166967-39.247886-68.326155 0-116.592438 14.999622-148.201343 30.390147-5.015224 3.542686-9.616008 7.315616-13.665231 11.295254-7.822153 7.684006-13.250792 15.851013-16.149818 24.316825l-14.309914 41.847084L299.17073 383.591445zM313.802986 159.310356l0 132.788306c5.107321-3.083222 10.720156-6.233981 16.84055-9.340739 33.818223-23.028483 80.979336-37.637202 137.343041-42.560328l0-23.787776-46.701648 0 0-72.489988 46.701648 0L467.986577 112.171756C397.174811 118.843712 337.681836 146.703223 313.802986 159.310356zM540.03859 238.633982c56.547901 1.587148 105.963357 10.697643 154.228617 52.913117L694.267207 160.207795c-25.673729-11.962449-87.467097-38.096666-154.228617-46.678112l0 30.390147 46.88482 0 0 72.489988-46.88482 0L540.03859 238.633982z" p-id="2757"/>
    </symbol>
    <symbol id="dwc" viewBox="-693 694.3 30 30">
       <title>&#x5F85;&#x5B8C;&#x6210;</title> <desc>Created with Sketch.</desc> <g id="Page-1"> <g id="Artboard" transform="translate(-748.000000, -34.000000)"> <g id="&#x5F85;&#x5B8C;&#x6210;" transform="translate(748.000000, 34.000000)"> <path id="Fill-1" d="M-678,696.7c-7,0-12.6,5.7-12.6,12.6S-685,722-678,722c7,0,12.6-5.7,12.6-12.6
				C-665.4,702.4-671,696.7-678,696.7 M-678,724.3c-8.3,0-15-6.7-15-15c0-8.3,6.7-15,15-15c8.3,0,15,6.7,15,15
				C-663,717.6-669.7,724.3-678,724.3"/> <path id="Fill-4" d="M-672,711.8h-8.5v-10.8c0-0.7,0.5-1.2,1.2-1.2c0.7,0,1.2,0.5,1.2,1.2v8.4h6.1c0.7,0,1.2,0.5,1.2,1.2
				C-670.8,711.3-671.4,711.8-672,711.8"/> </g> </g> </g> 
    </symbol>
    <symbol id="finish" viewBox="0 0 1024 1024">
      <path d="M230.882451 84.193601c-236.28204 155.288197-301.977047 472.664073-146.68885 708.946114 155.288197 236.28204 472.664073 301.977047 708.946114 146.68885 236.28204-155.288197 301.977047-472.664073 146.68885-708.946114C784.540368-5.39959 467.164491-71.094596 230.882451 84.193601zM770.04147 904.831225c-216.983507 142.589162-508.36136 82.193753-650.950522-134.689762-142.589162-216.983507-82.193753-508.36136 134.689762-650.950522 216.983507-142.589162 508.36136-82.193753 650.950522 134.689762C1047.320394 470.764218 987.024977 762.242063 770.04147 904.831225z" p-id="1919"/><path d="M270.579434 144.489018c-202.884579 133.289869-259.380285 405.969143-125.990424 608.853722 133.289869 202.884579 405.969143 259.380285 608.853722 125.990424s259.380285-405.969143 125.990424-608.853722C746.043294 67.594862 473.464013 11.199149 270.579434 144.489018zM741.943606 861.934485c-193.285309 126.990348-452.965571 73.294429-579.955918-119.99088-126.990348-193.285309-73.294429-452.965571 119.99088-579.955918 193.285309-126.990348 452.965571-73.294429 579.955918 119.99088C989.024825 475.263876 935.228914 734.944138 741.943606 861.934485z" p-id="1920"/><path d="M291.077876 499.662021c3.799711-67.594862 38.497074-132.48993 99.392445-172.486889s134.289793-45.996504 197.784967-22.698275l21.898336-14.398906c-72.894459-32.197553-159.98784-27.89788-231.582398 19.098548s-109.99164 125.290477-109.391685 204.984419L291.077876 499.662021z" p-id="1921"/><path d="M732.844297 524.260152c-3.799711 67.594862-38.497074 132.48993-99.392445 172.486889-60.895371 39.99696-134.289793 45.996504-197.784967 22.698275L413.76855 733.944214c72.894459 32.197553 159.98784 27.89788 231.582398-19.098548s109.99164-125.290477 109.391685-204.984419L732.844297 524.260152z" p-id="1922"/><path d="M317.075899 643.451092l182.586122-119.99088 12.49905 18.998556-56.795683 37.397157 28.597826 43.496694c4.199681 6.399514 8.899324 7.799407 14.198921 4.399666l26.198009-17.198693c2.399818-1.499886 3.299749-4.099688 2.699795-7.699415-0.699947-3.499734-5.599574-12.799027-14.498898-27.997872l22.598282-6.499506c12.199073 22.198313 17.798647 36.397233 16.898716 42.49677-0.899932 6.199529-4.799635 11.499126-11.799103 16.098776l-35.997264 23.698199c-14.298913 9.399286-26.697971 5.999544-37.297165-10.099232L435.466901 592.754945l-31.197629 20.498442 0.39997 0.599954c12.49905 20.798419 17.598662 40.896891 15.198845 60.395409-2.89978 18.198617-13.798951 37.997112-32.597522 59.295493L364.472297 723.245027c18.398602-20.098472 28.997796-37.297165 31.597598-51.796063 1.599878-14.498898-2.09984-29.497758-10.899172-44.696603l-0.39997-0.599954-55.195805 36.297241L317.075899 643.451092zM446.666049 446.766042l32.297545 49.096268-20.198465 13.298989-19.698503-29.99772-139.089428 91.393053 19.698503 29.99772L299.477237 613.853342l-32.297545-49.096268 77.894079-51.196109c-5.39959-4.199681-11.399134-8.299369-18.198617-12.199073l19.798495-18.398602c5.799559 3.999696 12.699035 9.299293 20.598434 15.998784L446.666049 446.766042zM323.475413 583.755629l117.891039-77.394117 12.49905 18.998556-117.891039 77.394117L323.475413 583.755629z" p-id="1923"/><path d="M603.954094 311.876295c14.59889 1.099916 27.597902 3.099764 38.897043 6.099536l-3.299749 15.898792 24.9981-16.398754 12.49905 18.898564-62.09528 40.796899c17.798647 23.698199 32.797507 41.196869 45.096572 52.296025 2.599802 2.49981 5.899552 5.299597 9.799255 8.499354-1.499886-21.298381-5.699567-43.596686-12.799027-66.994908l23.198237-4.199681c9.399286 32.797507 13.798951 62.49525 13.198997 89.093228 5.299597 3.299749 10.39921 5.999544 15.198845 8.199377 12.49905 5.099612 20.39845 6.599498 23.698199 4.399666 2.799787-1.799863-1.199909-13.798951-11.999088-35.897271l24.198161-2.199833c13.698959 32.297545 15.498822 51.796063 5.599574 58.395561-9.199301 5.999544-22.798267 6.099536-40.896891 0.299977-5.599574-1.899856-11.599118-4.499658-17.998632-7.8994-3.699719 24.698123-11.999088 47.196413-25.098092 67.49487l-22.198313-9.299293c14.198921-22.198313 22.49829-46.296481 24.9981-72.194513-7.199453-5.199605-15.098852-11.599118-23.698199-19.298533-15.298837-13.598966-32.09756-32.697515-50.496162-57.395637l-67.0949 44.096648 19.99848 30.39769 50.996124-33.497454c24.298153 37.897119 38.097104 62.895219 41.296861 75.094292 2.299825 10.799179-1.799863 19.898488-12.49905 27.297925-4.299673 2.799787-10.299217 6.299521-17.998632 10.299217l-17.798647-13.898944c11.499126-6.699491 18.698579-11.099156 21.598358-12.999012 3.499734-2.49981 4.399666-6.499506 2.599802-11.899096-1.999848-5.39959-10.199225-19.59851-24.498138-42.296785l-31.397614 20.698427 0.799939 1.199909c24.298153 38.697059 36.097256 75.094292 35.697287 109.1917l-23.798191-3.499734c0.599954-27.597902-9.99924-58.495554-31.697591-92.692955L495.462341 428.467433l85.793479-56.395713c-4.59965-6.299521-11.399134-16.498746-20.498442-30.297697l19.99848-13.099004c4.99962 7.599422 11.999088 17.698655 20.898412 30.097712l32.09756-21.098396c-10.599194-2.799787-21.998328-4.59965-34.297393-5.499582L603.954094 311.876295z" p-id="1924"/><path d="M296.377473 183.886023 329.274972 210.184024 364.472297 187.08578 349.573429 226.482785 382.370936 252.780786 340.374129 250.780938 325.475261 290.177944 314.376105 249.58103 272.279304 247.581182 307.476629 224.482937Z" p-id="1925"/><path d="M177.986471 305.676766 218.883363 315.676006 240.981683 279.878727 244.081448 321.875535 284.978339 331.774782 246.081296 347.773566 249.281052 389.770374 221.983127 357.672814 183.086084 373.671598 205.184404 337.874319Z" p-id="1926"/><path d="M455.265396 123.490614 473.863982 161.287741 515.560813 155.188204 485.463101 184.58597 504.061687 222.283105 466.764522 202.784587 436.666809 232.182352 443.76627 190.685506 406.469105 171.086996 448.165935 164.98746Z" p-id="1927"/><path d="M624.752513 135.989664 625.652445 177.986471 666.049374 190.085552 626.252399 204.084488 627.252323 246.081296 601.754261 212.683834 561.957286 226.582778 585.955462 191.985407 560.4574 158.487954 600.754337 170.587034Z" p-id="1928"/><path d="M122.09072 466.164567 163.387581 457.965191 168.287209 416.168368 188.885643 452.865578 230.182504 444.566209 201.584678 475.563853 222.183112 512.261064 183.986015 494.662401 155.388189 525.560053 160.287817 483.76323Z" p-id="1929"/><path d="M727.5447 840.03615 694.647201 813.738149 659.449876 836.836393 674.348744 797.439388 641.551236 771.141386 683.548044 773.141234 698.446912 733.744229 709.546068 774.341143 751.642869 776.340991 716.445544 799.439236Z" p-id="1930"/><path d="M845.935701 718.245407 805.03881 708.246167 782.94049 744.043446 779.840725 702.046638 738.943834 692.147391 777.840877 676.148607 774.64112 634.151799 801.939046 666.249359 840.836089 650.250575 818.737769 686.047854Z" p-id="1931"/><path d="M568.656777 900.431559 550.058191 862.634432 508.36136 868.733969 538.459072 839.336203 519.860486 801.639068 557.157651 821.137586 587.255363 791.739821 580.155903 833.236667 617.453068 852.835177 575.756237 858.934713Z" p-id="1932"/><path d="M399.16966 887.932509 398.269728 845.935701 357.872799 833.836621 397.669774 819.837685 396.66985 777.840877 422.167912 811.238339 461.964887 797.339395 437.966711 831.936765 463.464773 865.434219 423.167836 853.335139Z" p-id="1933"/><path d="M901.831453 557.757606 860.534592 565.956982 855.634964 607.753805 835.03653 571.056595 793.739669 579.355964 822.337495 548.35832 801.739061 511.661109 839.936157 529.259772 868.533984 498.36212 863.634356 540.158943Z" p-id="1934"/>
    </symbol>
    <symbol id="gmyw" viewBox="-694 695.3 28 28">
       <title>&#x8FC7;&#x654F;&#x836F;&#x7269;</title> <desc>Created with Sketch.</desc> <g id="Page-1"> <g id="Artboard" transform="translate(-369.000000, -32.000000)"> <path id="&#x8FC7;&#x654F;&#x836F;&#x7269;" d="M-301.1,739.7l-5,5l-6.6-6.6l-1.7,1.7l6.6,6.6l-5,5c-1.1,1.1-2.6,1.7-4.1,1.7c-1.6,0-3-0.6-4.1-1.7
			c-1.1-1.1-1.7-2.6-1.7-4.1c0-1.6,0.6-3,1.7-4.1l11.6-11.6c1.1-1.1,2.6-1.7,4.1-1.7c1.6,0,3,0.6,4.1,1.7c1.1,1.1,1.7,2.6,1.7,4.1
			C-299.3,737.1-300,738.6-301.1,739.7 M-299.4,729.7L-299.4,729.7c-1.5-1.5-3.5-2.4-5.8-2.4c-2.3,0-4.3,0.9-5.8,2.4l-11.6,11.6
			c-1.5,1.5-2.4,3.5-2.4,5.8c0,2.3,0.9,4.3,2.4,5.8c1.5,1.5,3.5,2.4,5.8,2.4h0c2.3,0,4.3-0.9,5.8-2.4l11.6-11.6
			c1.5-1.5,2.4-3.5,2.4-5.8C-297,733.3-297.9,731.2-299.4,729.7"/> </g> </g> 
    </symbol>
    <symbol id="grbs" viewBox="-696 694.3 25 30">
       <title>&#x4E2A;&#x4EBA;&#x75C5;&#x53F2;</title> <desc>Created with Sketch.</desc> <g id="Page-1"> <g id="Artboard" transform="translate(-302.000000, -32.000000)"> <path id="&#x4E2A;&#x4EBA;&#x75C5;&#x53F2;" d="M-386.5,730.3v2.5h-2.5v2h2.5v2.5h2v-2.5h2.5v-2h-2.5v-2.5H-386.5z M-374.5,741.1
			c0-0.1-0.1-0.2-0.2-0.2h-13.5c-0.1,0-0.2,0.1-0.2,0.2v1.5c0,0.1,0.1,0.2,0.2,0.2h13.5c0.1,0,0.2-0.1,0.2-0.2V741.1z M-374.5,745.5
			c0-0.1-0.1-0.2-0.2-0.2h-13.5c-0.1,0-0.2,0.1-0.2,0.2v1.5c0,0.1,0.1,0.2,0.2,0.2h13.5c0.1,0,0.2-0.1,0.2-0.2V745.5z M-388.3,751.8
			h13.5c0.1,0,0.2-0.1,0.2-0.2V750c0-0.1-0.1-0.2-0.2-0.2h-13.5c-0.1,0-0.2,0.1-0.2,0.2v1.5C-388.5,751.7-388.4,751.8-388.3,751.8
			L-388.3,751.8z M-375.5,734.8c-1.1,0-2-0.9-2-2v-3.5l5.5,5.5H-375.5z M-377.6,726.3h-2v2v4.9c0,2,1.6,3.6,3.6,3.6h4.9v15.6
			c0,1-0.8,1.9-1.8,1.9h-17.3c-1,0-1.8-0.8-1.8-1.9v-22.3c0-1,0.8-1.9,1.8-1.9h8.2v-2h-9c-1.7,0-3,1.3-3,3v24c0,1.7,1.3,3,3,3h19
			c1.7,0,3-1.3,3-3v-18.5L-377.6,726.3z"/> </g> </g> 
    </symbol>
    <symbol id="jbms" viewBox="-695 694.3 27 30">
       <title>&#x57FA;&#x672C;&#x63CF;&#x8FF0;</title> <desc>Created with Sketch.</desc> <g id="Page-1"> <g id="Artboard" transform="translate(-441.000000, -34.000000)"> <path id="&#x57FA;&#x672C;&#x63CF;&#x8FF0;" d="M-234.3,750.8h-13.1c-0.4,0-0.9-0.4-0.9-0.9c0-0.6,0.6-0.9,0.9-0.9h12.9c0.6,0,0.9,0.4,0.9,0.9
			C-233.6,750.4-233.8,750.8-234.3,750.8L-234.3,750.8z M-234.3,745.2h-13.1c-0.4,0-0.9-0.4-0.9-0.9s0.6-0.9,0.9-0.9h12.9
			c0.7,0,1.1,0.4,1.1,0.9S-233.8,745.2-234.3,745.2L-234.3,745.2z M-229.6,737.7h-3.7c-2.2,0-3.7-1.5-3.7-3.7v-3.6h-12.9
			c-1.1-0.2-2.1,0.7-2.1,1.9v22.1c0,1.1,0.9,2.1,2.1,2.1h18.4c1.1,0,2.1-0.9,2.1-2.1V737.7L-229.6,737.7z M-235.3,730.8v3
			c0,1.1,0.7,2.1,1.9,2.1h3.6L-235.3,730.8L-235.3,730.8z M-231.7,758.3h-18.2c-2.2,0-4.1-1.9-4.1-4.1v-22.1c0-2.2,1.9-3.7,4.1-3.7
			h12.2h2.1h0.4l7.5,7.5v2.1v16.3C-227.8,756.4-229.4,758.3-231.7,758.3L-231.7,758.3z"/> </g> </g> 
    </symbol>
    <symbol id="right" viewBox="-700 696.3 16 26">
       <title>&#x53F3; copy</title> <desc>Created with Sketch.</desc> <g id="Page-1"> <g id="Artboard" transform="translate(-44.000000, -34.000000)"> <g id="&#x53F3;" transform="translate(44.000000, 34.000000)"> <polygon id="Disclosure-Indicator" points="-700,699.3 -697,696.3 -684,709.3 -697,722.3 -700,719.3 -690,709.3 			"/> </g> </g> </g> 
    </symbol>
    <symbol id="scly" viewBox="-693 696.3 30 26">
       <title>&#x64C5;&#x957F;&#x9886;&#x57DF;</title> <desc>Created with Sketch.</desc> <polygon id="Fill-2" points="-677,705.8 -679,705.8 -679,710.8 -684,710.8 -684,712.8 -679,712.8 -679,717.8 -677,717.8 -677,712.8 
	-672,712.8 -672,710.8 -677,710.8 "/> <path d="M-670.5,701.3v-5h-15v5h-7.5v21h30v-21H-670.5z M-683.5,698.3h11v3h-11V698.3z M-665,720.3h-26v-17h5.5h15h5.5V720.3z"/> 
    </symbol>
    <symbol id="sctp" viewBox="-693 694.3 30 30">
       <title>&#x5220;&#x9664;&#x56FE;&#x7247;</title> <desc>Created with Sketch.</desc> <path d="M-678,694.3c-8.3,0-15,6.7-15,15c0,8.3,6.7,15,15,15c8.3,0,15-6.7,15-15C-663,701-669.7,694.3-678,694.3z M-672.8,715.9
	c-0.4,0-0.7-0.2-1-0.4l-4.2-4.2l-4.2,4.2c-0.3,0.3-0.6,0.4-1,0.4c-0.8,0-1.4-0.6-1.4-1.4c0-0.4,0.2-0.7,0.4-1l4.2-4.2l-4.2-4.2
	c-0.3-0.3-0.4-0.6-0.4-1c0-0.8,0.6-1.4,1.4-1.4c0.4,0,0.7,0.2,1,0.4l4.2,4.2l4.2-4.2c0.3-0.3,0.6-0.4,1-0.4c0.8,0,1.4,0.6,1.4,1.4
	c0,0.4-0.2,0.7-0.4,1l-4.2,4.2l4.2,4.2c0.3,0.3,0.4,0.6,0.4,1C-671.4,715.3-672.1,715.9-672.8,715.9z"/> 
    </symbol>
    <symbol id="sfqg" viewBox="-694 694.3 28 29">
       <title>&#x662F;&#x5426;&#x7F3A;&#x9499;</title> <desc>Created with Sketch.</desc> <g id="Page-1"> <g id="Artboard" transform="translate(-667.000000, -35.000000)"> <path id="&#x662F;&#x5426;&#x7F3A;&#x9499;" d="M-20.3,755.2c-0.7-0.9-0.6-2.1-0.6-2.2l0.2-1.5l-1.4,0.4c-1.8,0.5-2.5-0.7-2.6-1.1
			c-0.5-1.2-0.4-2.2,0.4-3c0.5-0.5,1-0.7,1.2-0.8c1.9-0.1,4,0,4.2,0l0.4,0l8.1-8.1l0.3-1.4l0-0.2c-0.1-0.7-0.2-2.2-0.2-2.9
			c0.1-0.5,0.3-0.9,0.6-1.3c0.8-0.8,2.2-0.8,2.5-0.8c2.3,0.7,2,2.8,2,3.1l-0.2,1.3l1.4-0.2c0.9-0.1,1.6,0,2,0.4
			c0.7,0.5,0.8,1.5,0.8,1.6c0.1,1.1-0.1,1.9-0.6,2.4c-0.7,0.7-1.9,0.7-2.1,0.6l0,0c-1.3-0.2-3.4,0-3.4,0l-0.3,0l-7.9,7.9l-0.1,0.2
			c-0.2,0.4-0.2,1.6-0.2,3.5c0,1-0.2,1.8-0.7,2.3l0,0c-0.7,0.7-1.9,0.7-1.9,0.7C-19.4,755.9-19.9,755.6-20.3,755.2 M-0.8,735.3
			c-0.7-0.5-1.5-0.8-2.4-0.9c-0.1-1.1-0.7-3.3-3.5-4.1l-0.2,0l0,0c-0.1,0-2.5-0.1-4.1,1.4c-0.7,0.7-1,1.5-1.2,2.5l0,0.1l0,0
			c0,0,0,2,0.2,3.2l-0.1,0.4l-7,7c-0.8,0-2.6-0.1-4.2,0.1l-0.2,0l0,0c0,0-1.1,0.4-2.1,1.3c-1.4,1.4-1.7,3.2-0.9,5.2
			c0.4,0.9,1.6,2.5,3.8,2.5c0.1,0.7,0.3,1.6,1,2.4c0.7,0.9,1.8,1.4,3.1,1.5c0.1,0,2.1,0.2,3.5-1.2c0.9-0.9,1.3-2.1,1.3-3.8
			c0-1,0-2.2,0-2.6l7-7c0.5,0,1.8-0.1,2.5,0l0,0c0.1,0,2.3,0.3,3.8-1.2c0.9-0.9,1.3-2.2,1.2-3.9C0.6,738.1,0.5,736.4-0.8,735.3"/> </g> </g> 
    </symbol>
    <symbol id="smms" viewBox="-694 695.3 28 28">
       <title>&#x7761;&#x7720;&#x63CF;&#x8FF0;</title> <desc>Created with Sketch.</desc> <g id="Page-1"> <g id="Artboard" transform="translate(-591.000000, -33.000000)"> <g id="&#x7761;&#x7720;&#x63CF;&#x8FF0;" transform="translate(591.000000, 33.000000)"> <g id="Group-3" transform="translate(0.000000, 0.018003)"> <path id="Fill-1" d="M-667,708.3L-667,708.3c-0.6,0-1,0.4-1,1c0,2.1-0.6,4.2-1.6,6c-1.6,2.8-4.2,4.8-7.3,5.6
					c-3.1,0.8-6.3,0.4-9.1-1.2c-2.8-1.6-4.8-4.2-5.6-7.3c-0.8-3.1-0.4-6.3,1.2-9.1c2-3.5,5.6-5.7,9.5-6c0.6,0,1-0.5,0.9-1.1
					c0-0.6-0.5-1-1.1-0.9c-4.6,0.3-8.8,2.9-11.1,7c-1.9,3.2-2.4,7-1.4,10.6c1,3.6,3.3,6.6,6.5,8.5c2.2,1.2,4.5,1.9,7,1.9
					c1.2,0,2.4-0.2,3.6-0.5c3.6-1,6.6-3.3,8.5-6.5c1.2-2.1,1.9-4.5,1.9-7C-666,708.8-666.5,708.3-667,708.3"/> </g> <path id="Fill-4" d="M-676.8,698h6.4l-7.1,6.1c-0.3,0.3-0.4,0.7-0.3,1.1c0.1,0.4,0.5,0.6,0.9,0.6h9.1c0.6,0,1-0.4,1-1s-0.4-1-1-1
				h-6.4l7.1-6.1c0.3-0.3,0.4-0.7,0.3-1.1c-0.1-0.4-0.5-0.6-0.9-0.6h-9.1c-0.6,0-1,0.4-1,1S-677.4,698-676.8,698"/> <path id="Fill-6" d="M-684.9,708.9v1c0,0.6,0.4,1,1,1c0.6,0,1-0.4,1-1v-1c0-0.6-0.4-1-1-1C-684.5,707.9-684.9,708.3-684.9,708.9"/> <path id="Fill-8" d="M-677.1,708.9v1c0,0.6,0.4,1,1,1c0.6,0,1-0.4,1-1v-1c0-0.6-0.4-1-1-1C-676.7,707.9-677.1,708.3-677.1,708.9"/> <path id="Fill-10" d="M-681,712.5c-0.3-0.5-0.9-0.6-1.4-0.3c-0.5,0.3-0.6,0.9-0.3,1.4c0.4,0.6,1.3,1.5,2.7,1.5
				c1.4,0,2.4-1,2.7-1.5c0.3-0.5,0.2-1.1-0.3-1.4c-0.5-0.3-1.1-0.2-1.4,0.3c0,0-0.4,0.6-1,0.6C-680.6,713.1-681,712.5-681,712.5"/> </g> </g> </g> 
    </symbol>
    <symbol id="ysms" viewBox="-694 695.3 28 28">
       <title>&#x996E;&#x98DF;&#x63CF;&#x8FF0;</title> <desc>Created with Sketch.</desc> <g id="Page-1"> <g id="Artboard" transform="translate(-516.000000, -32.000000)"> <g id="&#x996E;&#x98DF;&#x63CF;&#x8FF0;" transform="translate(516.000000, 32.000000)"> <path id="Fill-1" d="M-667.8,713.1c0,0.2-0.1,4.6-6.6,6.4c-0.4,0.1-0.6,0.5-0.6,0.8v1.2H-685v-1.2c0-0.4-0.3-0.7-0.6-0.8
				c-6.4-1.8-6.6-6.2-6.6-6.4v-4.2h24.5L-667.8,713.1z M-666.9,707.1h-19.4l19.2-6c0.5-0.1,0.7-0.6,0.6-1.1
				c-0.1-0.5-0.6-0.7-1.1-0.6l-24.3,7.7c0,0,0,0-0.1,0h-1c-0.5,0-0.9,0.4-0.9,0.9v5.1c0,0.2,0.1,5.6,7.2,7.9v1.4
				c0,0.5,0.4,0.9,0.9,0.9h11.8c0.5,0,0.9-0.4,0.9-0.9V721c7.1-2.3,7.2-7.7,7.2-7.9V708C-666,707.5-666.4,707.1-666.9,707.1
				L-666.9,707.1z"/> <path id="Fill-3" d="M-689.7,712.4h19.2c0.5,0,0.9-0.4,0.9-0.9c0-0.5-0.4-0.9-0.9-0.9h-19.2c-0.5,0-0.9,0.4-0.9,0.9
				C-690.6,712-690.2,712.4-689.7,712.4"/> <path id="Fill-5" d="M-693,704.7c0.1,0,0.2,0,0.3,0l24.3-7.7c0.5-0.1,0.7-0.6,0.6-1.1c-0.1-0.5-0.6-0.7-1.1-0.6l-24.3,7.7
				c-0.5,0.1-0.7,0.6-0.6,1.1C-693.7,704.5-693.4,704.7-693,704.7"/> </g> </g> </g> 
    </symbol>
    <symbol id="ywc" viewBox="-693 694.3 30 30">
       <title>&#x5DF2;&#x5B8C;&#x6210;</title> <desc>Created with Sketch.</desc> <g id="Page-1"> <g id="Artboard" transform="translate(-913.000000, -33.000000)"> <path id="&#x5DF2;&#x5B8C;&#x6210;" d="M232.6,749.1c0.3,0,0.7-0.1,0.9-0.4l10-10c0.5-0.5,0.5-1.4,0-1.9c-0.5-0.5-1.4-0.5-1.9,0l-9,9l-4-4
			c-0.5-0.5-1.4-0.5-1.9,0c-0.5,0.5-0.5,1.4,0,1.9l5,5C231.9,748.9,232.2,749.1,232.6,749.1 M245.6,731.7c-2.8-2.8-6.6-4.4-10.6-4.4
			s-7.8,1.6-10.6,4.4c-2.8,2.8-4.4,6.6-4.4,10.6c0,2.9,0.8,5.7,2.4,8.2c0.3,0.5,1,0.6,1.4,0.3c0.5-0.3,0.6-1,0.3-1.4
			c-1.4-2.1-2.1-4.5-2.1-7c0-7.1,5.8-12.9,12.9-12.9s12.9,5.8,12.9,12.9c0,7.1-5.8,12.9-12.9,12.9c-2.4,0-4.7-0.6-6.7-1.9
			c-0.5-0.3-1.1-0.1-1.4,0.4c-0.3,0.5-0.1,1.1,0.4,1.4c2.3,1.4,5,2.2,7.7,2.2c4,0,7.8-1.6,10.6-4.4c2.8-2.8,4.4-6.6,4.4-10.6
			S248.4,734.5,245.6,731.7"/> </g> </g> 
    </symbol>
    <symbol id="zjjj" viewBox="-695 692.3 26 34">
        <title>&#x4E13;&#x5BB6;&#x7B80;&#x4ECB;</title> <desc>Created with Sketch.</desc> <g id="Page-1"> <g id="Artboard" transform="translate(-164.000000, -31.000000)"> <path id="&#x4E13;&#x5BB6;&#x7B80;&#x4ECB;" class="st0" d="M-510.2,748.9h-15c-0.6,0-1.1,0.5-1.1,1c0,0.6,0.5,1,1.1,1h15c0.6,0,1.1-0.5,1.1-1
			C-509.1,749.4-509.6,748.9-510.2,748.9L-510.2,748.9z M-510.2,744.5h-15c-0.6,0-1.1,0.5-1.1,1c0,0.6,0.5,1,1.1,1h15
			c0.6,0,1.1-0.5,1.1-1C-509.1,745-509.6,744.5-510.2,744.5L-510.2,744.5z M-526.3,736.8c0,0.6,0.5,1,1.1,1h15c0.6,0,1.1-0.5,1.1-1
			c0-0.6-0.5-1-1.1-1h-15C-525.8,735.8-526.3,736.3-526.3,736.8L-526.3,736.8z M-510.2,740.2h-15c-0.6,0-1.1,0.5-1.1,1
			c0,0.6,0.5,1,1.1,1h15c0.6,0,1.1-0.5,1.1-1C-509.1,740.6-509.6,740.2-510.2,740.2L-510.2,740.2z M-507.2,754.6h-21.7v-29.2h15.7
			v4.6c0,0.6,0.5,1,1.1,1h4.9L-507.2,754.6L-507.2,754.6L-507.2,754.6z M-511,726.8l2.2,2.1h-2.2V726.8L-511,726.8z M-505,729.9
			L-505,729.9C-505,729.9-505,729.9-505,729.9L-505,729.9c0-0.2-0.1-0.3-0.1-0.4c0,0,0-0.1-0.1-0.1c0,0,0,0,0,0c0,0,0,0,0-0.1
			c0,0,0,0,0,0c0,0,0,0,0,0c0,0,0,0,0,0c0,0,0,0,0,0c0,0,0,0,0,0l-5.9-5.6c-0.2-0.2-0.4-0.3-0.6-0.3c0,0-0.1,0-0.1,0h0h0h-17.9
			c-0.6,0-1.1,0.5-1.1,1v31.3c0,0.6,0.5,1,1.1,1h23.8c0.6,0,1.1-0.5,1.1-1L-505,729.9C-505,730-505,729.9-505,729.9L-505,729.9z"/> </g> </g> 
    </symbol></svg>