<svg xmlns="http://www.w3.org/2000/svg">
    <symbol id="dbc" viewBox="-693 694.3 30 30">
       <title>&#x5F85;&#x8865;&#x5145;</title> <desc>Created with Sketch.</desc> <g id="Page-1"> <g id="Artboard" transform="translate(-831.000000, -34.000000)"> <path id="&#x5F85;&#x8865;&#x5145;" d="M149.5,746.5L149.5,746.5c0.5,0,1-0.4,1-1v-2.9h2.9c0.5,0,1-0.4,1-1c0-0.5-0.4-1-1-1h-2.9v-2.9
			c0-0.5-0.4-1-1-1h0c-0.5,0-1,0.4-1,1v2.9h-2.9c-0.5,0-1,0.4-1,1c0,0.5,0.4,1,1,1h2.9v2.9C148.5,746.1,149,746.5,149.5,746.5
			L149.5,746.5z M166.2,738.8c-0.9-0.5-2-0.3-2.5,0.5l-3,5.3l3.3,2l3-5.3C167.5,740.4,167,739.3,166.2,738.8L166.2,738.8z
			 M156,752.9c-0.3,0.6-1,3.1-0.7,4.2l-0.3,0.6c-0.1,0.2,0,0.5,0.2,0.6c0,0,0.1,0,0.1,0.1c0.2,0,0.4,0,0.4-0.2l0.3-0.6
			c1.1-0.3,2.8-2,3.2-2.7l4.1-7.3l-3.3-2L156,752.9z M157.9,743.9c-0.2,0.4-0.1,0.9,0.3,1.2c0.4,0.2,0.9,0.1,1.1-0.3l3-5.3
			c0.2-0.4,0.1-0.9-0.3-1.2c-0.4-0.2-0.9-0.1-1.1,0.3L157.9,743.9z M159.1,735v3.5l0.7-1.2c0.3-0.5,0.7-0.9,1.2-1.1v-2.1l-1.9-1.9v0
			l-1.9-1.9h0l-1.9-1.9h-15.3c-1.1,0-1.9,0.9-1.9,1.9v23.9c0,1.1,0.9,1.9,1.9,1.9c0,0,8.2,0,13.9,0l0.3-1.9h-14.3v-23.9h14.4v3.5
			c0,0.7,0.6,1.3,1.3,1.3H159.1z"/> </g> </g> 
    </symbol>
    <symbol id="dwc" viewBox="-693 694.3 30 30">
       <title>&#x5F85;&#x5B8C;&#x6210;</title> <desc>Created with Sketch.</desc> <g id="Page-1"> <g id="Artboard" transform="translate(-748.000000, -34.000000)"> <g id="&#x5F85;&#x5B8C;&#x6210;" transform="translate(748.000000, 34.000000)"> <path id="Fill-1" d="M-678,696.7c-7,0-12.6,5.7-12.6,12.6S-685,722-678,722c7,0,12.6-5.7,12.6-12.6
				C-665.4,702.4-671,696.7-678,696.7 M-678,724.3c-8.3,0-15-6.7-15-15c0-8.3,6.7-15,15-15c8.3,0,15,6.7,15,15
				C-663,717.6-669.7,724.3-678,724.3"/> <path id="Fill-4" d="M-672,711.8h-8.5v-10.8c0-0.7,0.5-1.2,1.2-1.2c0.7,0,1.2,0.5,1.2,1.2v8.4h6.1c0.7,0,1.2,0.5,1.2,1.2
				C-670.8,711.3-671.4,711.8-672,711.8"/> </g> </g> </g> 
    </symbol>
    <symbol id="gmyw" viewBox="-694 695.3 28 28">
       <title>&#x8FC7;&#x654F;&#x836F;&#x7269;</title> <desc>Created with Sketch.</desc> <g id="Page-1"> <g id="Artboard" transform="translate(-369.000000, -32.000000)"> <path id="&#x8FC7;&#x654F;&#x836F;&#x7269;" d="M-301.1,739.7l-5,5l-6.6-6.6l-1.7,1.7l6.6,6.6l-5,5c-1.1,1.1-2.6,1.7-4.1,1.7c-1.6,0-3-0.6-4.1-1.7
			c-1.1-1.1-1.7-2.6-1.7-4.1c0-1.6,0.6-3,1.7-4.1l11.6-11.6c1.1-1.1,2.6-1.7,4.1-1.7c1.6,0,3,0.6,4.1,1.7c1.1,1.1,1.7,2.6,1.7,4.1
			C-299.3,737.1-300,738.6-301.1,739.7 M-299.4,729.7L-299.4,729.7c-1.5-1.5-3.5-2.4-5.8-2.4c-2.3,0-4.3,0.9-5.8,2.4l-11.6,11.6
			c-1.5,1.5-2.4,3.5-2.4,5.8c0,2.3,0.9,4.3,2.4,5.8c1.5,1.5,3.5,2.4,5.8,2.4h0c2.3,0,4.3-0.9,5.8-2.4l11.6-11.6
			c1.5-1.5,2.4-3.5,2.4-5.8C-297,733.3-297.9,731.2-299.4,729.7"/> </g> </g> 
    </symbol>
    <symbol id="grbs" viewBox="-696 694.3 25 30">
       <title>&#x4E2A;&#x4EBA;&#x75C5;&#x53F2;</title> <desc>Created with Sketch.</desc> <g id="Page-1"> <g id="Artboard" transform="translate(-302.000000, -32.000000)"> <path id="&#x4E2A;&#x4EBA;&#x75C5;&#x53F2;" d="M-386.5,730.3v2.5h-2.5v2h2.5v2.5h2v-2.5h2.5v-2h-2.5v-2.5H-386.5z M-374.5,741.1
			c0-0.1-0.1-0.2-0.2-0.2h-13.5c-0.1,0-0.2,0.1-0.2,0.2v1.5c0,0.1,0.1,0.2,0.2,0.2h13.5c0.1,0,0.2-0.1,0.2-0.2V741.1z M-374.5,745.5
			c0-0.1-0.1-0.2-0.2-0.2h-13.5c-0.1,0-0.2,0.1-0.2,0.2v1.5c0,0.1,0.1,0.2,0.2,0.2h13.5c0.1,0,0.2-0.1,0.2-0.2V745.5z M-388.3,751.8
			h13.5c0.1,0,0.2-0.1,0.2-0.2V750c0-0.1-0.1-0.2-0.2-0.2h-13.5c-0.1,0-0.2,0.1-0.2,0.2v1.5C-388.5,751.7-388.4,751.8-388.3,751.8
			L-388.3,751.8z M-375.5,734.8c-1.1,0-2-0.9-2-2v-3.5l5.5,5.5H-375.5z M-377.6,726.3h-2v2v4.9c0,2,1.6,3.6,3.6,3.6h4.9v15.6
			c0,1-0.8,1.9-1.8,1.9h-17.3c-1,0-1.8-0.8-1.8-1.9v-22.3c0-1,0.8-1.9,1.8-1.9h8.2v-2h-9c-1.7,0-3,1.3-3,3v24c0,1.7,1.3,3,3,3h19
			c1.7,0,3-1.3,3-3v-18.5L-377.6,726.3z"/> </g> </g> 
    </symbol>
    <symbol id="jbms" viewBox="-695 694.3 27 30">
       <title>&#x57FA;&#x672C;&#x63CF;&#x8FF0;</title> <desc>Created with Sketch.</desc> <g id="Page-1"> <g id="Artboard" transform="translate(-441.000000, -34.000000)"> <path id="&#x57FA;&#x672C;&#x63CF;&#x8FF0;" d="M-234.3,750.8h-13.1c-0.4,0-0.9-0.4-0.9-0.9c0-0.6,0.6-0.9,0.9-0.9h12.9c0.6,0,0.9,0.4,0.9,0.9
			C-233.6,750.4-233.8,750.8-234.3,750.8L-234.3,750.8z M-234.3,745.2h-13.1c-0.4,0-0.9-0.4-0.9-0.9s0.6-0.9,0.9-0.9h12.9
			c0.7,0,1.1,0.4,1.1,0.9S-233.8,745.2-234.3,745.2L-234.3,745.2z M-229.6,737.7h-3.7c-2.2,0-3.7-1.5-3.7-3.7v-3.6h-12.9
			c-1.1-0.2-2.1,0.7-2.1,1.9v22.1c0,1.1,0.9,2.1,2.1,2.1h18.4c1.1,0,2.1-0.9,2.1-2.1V737.7L-229.6,737.7z M-235.3,730.8v3
			c0,1.1,0.7,2.1,1.9,2.1h3.6L-235.3,730.8L-235.3,730.8z M-231.7,758.3h-18.2c-2.2,0-4.1-1.9-4.1-4.1v-22.1c0-2.2,1.9-3.7,4.1-3.7
			h12.2h2.1h0.4l7.5,7.5v2.1v16.3C-227.8,756.4-229.4,758.3-231.7,758.3L-231.7,758.3z"/> </g> </g> 
    </symbol>
    <symbol id="right" viewBox="-700 696.3 16 26">
       <title>&#x53F3; copy</title> <desc>Created with Sketch.</desc> <g id="Page-1"> <g id="Artboard" transform="translate(-44.000000, -34.000000)"> <g id="&#x53F3;" transform="translate(44.000000, 34.000000)"> <polygon id="Disclosure-Indicator" points="-700,699.3 -697,696.3 -684,709.3 -697,722.3 -700,719.3 -690,709.3 			"/> </g> </g> </g> 
    </symbol>
    <symbol id="scly" viewBox="-693 696.3 30 26">
       <title>&#x64C5;&#x957F;&#x9886;&#x57DF;</title> <desc>Created with Sketch.</desc> <polygon id="Fill-2" points="-677,705.8 -679,705.8 -679,710.8 -684,710.8 -684,712.8 -679,712.8 -679,717.8 -677,717.8 -677,712.8 
	-672,712.8 -672,710.8 -677,710.8 "/> <path d="M-670.5,701.3v-5h-15v5h-7.5v21h30v-21H-670.5z M-683.5,698.3h11v3h-11V698.3z M-665,720.3h-26v-17h5.5h15h5.5V720.3z"/> 
    </symbol>
    <symbol id="sctp" viewBox="-693 694.3 30 30">
       <title>&#x5220;&#x9664;&#x56FE;&#x7247;</title> <desc>Created with Sketch.</desc> <path d="M-678,694.3c-8.3,0-15,6.7-15,15c0,8.3,6.7,15,15,15c8.3,0,15-6.7,15-15C-663,701-669.7,694.3-678,694.3z M-672.8,715.9
	c-0.4,0-0.7-0.2-1-0.4l-4.2-4.2l-4.2,4.2c-0.3,0.3-0.6,0.4-1,0.4c-0.8,0-1.4-0.6-1.4-1.4c0-0.4,0.2-0.7,0.4-1l4.2-4.2l-4.2-4.2
	c-0.3-0.3-0.4-0.6-0.4-1c0-0.8,0.6-1.4,1.4-1.4c0.4,0,0.7,0.2,1,0.4l4.2,4.2l4.2-4.2c0.3-0.3,0.6-0.4,1-0.4c0.8,0,1.4,0.6,1.4,1.4
	c0,0.4-0.2,0.7-0.4,1l-4.2,4.2l4.2,4.2c0.3,0.3,0.4,0.6,0.4,1C-671.4,715.3-672.1,715.9-672.8,715.9z"/> 
    </symbol>
    <symbol id="sfqg" viewBox="-694 694.3 28 29">
       <title>&#x662F;&#x5426;&#x7F3A;&#x9499;</title> <desc>Created with Sketch.</desc> <g id="Page-1"> <g id="Artboard" transform="translate(-667.000000, -35.000000)"> <path id="&#x662F;&#x5426;&#x7F3A;&#x9499;" d="M-20.3,755.2c-0.7-0.9-0.6-2.1-0.6-2.2l0.2-1.5l-1.4,0.4c-1.8,0.5-2.5-0.7-2.6-1.1
			c-0.5-1.2-0.4-2.2,0.4-3c0.5-0.5,1-0.7,1.2-0.8c1.9-0.1,4,0,4.2,0l0.4,0l8.1-8.1l0.3-1.4l0-0.2c-0.1-0.7-0.2-2.2-0.2-2.9
			c0.1-0.5,0.3-0.9,0.6-1.3c0.8-0.8,2.2-0.8,2.5-0.8c2.3,0.7,2,2.8,2,3.1l-0.2,1.3l1.4-0.2c0.9-0.1,1.6,0,2,0.4
			c0.7,0.5,0.8,1.5,0.8,1.6c0.1,1.1-0.1,1.9-0.6,2.4c-0.7,0.7-1.9,0.7-2.1,0.6l0,0c-1.3-0.2-3.4,0-3.4,0l-0.3,0l-7.9,7.9l-0.1,0.2
			c-0.2,0.4-0.2,1.6-0.2,3.5c0,1-0.2,1.8-0.7,2.3l0,0c-0.7,0.7-1.9,0.7-1.9,0.7C-19.4,755.9-19.9,755.6-20.3,755.2 M-0.8,735.3
			c-0.7-0.5-1.5-0.8-2.4-0.9c-0.1-1.1-0.7-3.3-3.5-4.1l-0.2,0l0,0c-0.1,0-2.5-0.1-4.1,1.4c-0.7,0.7-1,1.5-1.2,2.5l0,0.1l0,0
			c0,0,0,2,0.2,3.2l-0.1,0.4l-7,7c-0.8,0-2.6-0.1-4.2,0.1l-0.2,0l0,0c0,0-1.1,0.4-2.1,1.3c-1.4,1.4-1.7,3.2-0.9,5.2
			c0.4,0.9,1.6,2.5,3.8,2.5c0.1,0.7,0.3,1.6,1,2.4c0.7,0.9,1.8,1.4,3.1,1.5c0.1,0,2.1,0.2,3.5-1.2c0.9-0.9,1.3-2.1,1.3-3.8
			c0-1,0-2.2,0-2.6l7-7c0.5,0,1.8-0.1,2.5,0l0,0c0.1,0,2.3,0.3,3.8-1.2c0.9-0.9,1.3-2.2,1.2-3.9C0.6,738.1,0.5,736.4-0.8,735.3"/> </g> </g> 
    </symbol>
    <symbol id="smms" viewBox="-694 695.3 28 28">
       <title>&#x7761;&#x7720;&#x63CF;&#x8FF0;</title> <desc>Created with Sketch.</desc> <g id="Page-1"> <g id="Artboard" transform="translate(-591.000000, -33.000000)"> <g id="&#x7761;&#x7720;&#x63CF;&#x8FF0;" transform="translate(591.000000, 33.000000)"> <g id="Group-3" transform="translate(0.000000, 0.018003)"> <path id="Fill-1" d="M-667,708.3L-667,708.3c-0.6,0-1,0.4-1,1c0,2.1-0.6,4.2-1.6,6c-1.6,2.8-4.2,4.8-7.3,5.6
					c-3.1,0.8-6.3,0.4-9.1-1.2c-2.8-1.6-4.8-4.2-5.6-7.3c-0.8-3.1-0.4-6.3,1.2-9.1c2-3.5,5.6-5.7,9.5-6c0.6,0,1-0.5,0.9-1.1
					c0-0.6-0.5-1-1.1-0.9c-4.6,0.3-8.8,2.9-11.1,7c-1.9,3.2-2.4,7-1.4,10.6c1,3.6,3.3,6.6,6.5,8.5c2.2,1.2,4.5,1.9,7,1.9
					c1.2,0,2.4-0.2,3.6-0.5c3.6-1,6.6-3.3,8.5-6.5c1.2-2.1,1.9-4.5,1.9-7C-666,708.8-666.5,708.3-667,708.3"/> </g> <path id="Fill-4" d="M-676.8,698h6.4l-7.1,6.1c-0.3,0.3-0.4,0.7-0.3,1.1c0.1,0.4,0.5,0.6,0.9,0.6h9.1c0.6,0,1-0.4,1-1s-0.4-1-1-1
				h-6.4l7.1-6.1c0.3-0.3,0.4-0.7,0.3-1.1c-0.1-0.4-0.5-0.6-0.9-0.6h-9.1c-0.6,0-1,0.4-1,1S-677.4,698-676.8,698"/> <path id="Fill-6" d="M-684.9,708.9v1c0,0.6,0.4,1,1,1c0.6,0,1-0.4,1-1v-1c0-0.6-0.4-1-1-1C-684.5,707.9-684.9,708.3-684.9,708.9"/> <path id="Fill-8" d="M-677.1,708.9v1c0,0.6,0.4,1,1,1c0.6,0,1-0.4,1-1v-1c0-0.6-0.4-1-1-1C-676.7,707.9-677.1,708.3-677.1,708.9"/> <path id="Fill-10" d="M-681,712.5c-0.3-0.5-0.9-0.6-1.4-0.3c-0.5,0.3-0.6,0.9-0.3,1.4c0.4,0.6,1.3,1.5,2.7,1.5
				c1.4,0,2.4-1,2.7-1.5c0.3-0.5,0.2-1.1-0.3-1.4c-0.5-0.3-1.1-0.2-1.4,0.3c0,0-0.4,0.6-1,0.6C-680.6,713.1-681,712.5-681,712.5"/> </g> </g> </g> 
    </symbol>
    <symbol id="ysms" viewBox="-694 695.3 28 28">
       <title>&#x996E;&#x98DF;&#x63CF;&#x8FF0;</title> <desc>Created with Sketch.</desc> <g id="Page-1"> <g id="Artboard" transform="translate(-516.000000, -32.000000)"> <g id="&#x996E;&#x98DF;&#x63CF;&#x8FF0;" transform="translate(516.000000, 32.000000)"> <path id="Fill-1" d="M-667.8,713.1c0,0.2-0.1,4.6-6.6,6.4c-0.4,0.1-0.6,0.5-0.6,0.8v1.2H-685v-1.2c0-0.4-0.3-0.7-0.6-0.8
				c-6.4-1.8-6.6-6.2-6.6-6.4v-4.2h24.5L-667.8,713.1z M-666.9,707.1h-19.4l19.2-6c0.5-0.1,0.7-0.6,0.6-1.1
				c-0.1-0.5-0.6-0.7-1.1-0.6l-24.3,7.7c0,0,0,0-0.1,0h-1c-0.5,0-0.9,0.4-0.9,0.9v5.1c0,0.2,0.1,5.6,7.2,7.9v1.4
				c0,0.5,0.4,0.9,0.9,0.9h11.8c0.5,0,0.9-0.4,0.9-0.9V721c7.1-2.3,7.2-7.7,7.2-7.9V708C-666,707.5-666.4,707.1-666.9,707.1
				L-666.9,707.1z"/> <path id="Fill-3" d="M-689.7,712.4h19.2c0.5,0,0.9-0.4,0.9-0.9c0-0.5-0.4-0.9-0.9-0.9h-19.2c-0.5,0-0.9,0.4-0.9,0.9
				C-690.6,712-690.2,712.4-689.7,712.4"/> <path id="Fill-5" d="M-693,704.7c0.1,0,0.2,0,0.3,0l24.3-7.7c0.5-0.1,0.7-0.6,0.6-1.1c-0.1-0.5-0.6-0.7-1.1-0.6l-24.3,7.7
				c-0.5,0.1-0.7,0.6-0.6,1.1C-693.7,704.5-693.4,704.7-693,704.7"/> </g> </g> </g> 
    </symbol>
    <symbol id="ywc" viewBox="-693 694.3 30 30">
       <title>&#x5DF2;&#x5B8C;&#x6210;</title> <desc>Created with Sketch.</desc> <g id="Page-1"> <g id="Artboard" transform="translate(-913.000000, -33.000000)"> <path id="&#x5DF2;&#x5B8C;&#x6210;" d="M232.6,749.1c0.3,0,0.7-0.1,0.9-0.4l10-10c0.5-0.5,0.5-1.4,0-1.9c-0.5-0.5-1.4-0.5-1.9,0l-9,9l-4-4
			c-0.5-0.5-1.4-0.5-1.9,0c-0.5,0.5-0.5,1.4,0,1.9l5,5C231.9,748.9,232.2,749.1,232.6,749.1 M245.6,731.7c-2.8-2.8-6.6-4.4-10.6-4.4
			s-7.8,1.6-10.6,4.4c-2.8,2.8-4.4,6.6-4.4,10.6c0,2.9,0.8,5.7,2.4,8.2c0.3,0.5,1,0.6,1.4,0.3c0.5-0.3,0.6-1,0.3-1.4
			c-1.4-2.1-2.1-4.5-2.1-7c0-7.1,5.8-12.9,12.9-12.9s12.9,5.8,12.9,12.9c0,7.1-5.8,12.9-12.9,12.9c-2.4,0-4.7-0.6-6.7-1.9
			c-0.5-0.3-1.1-0.1-1.4,0.4c-0.3,0.5-0.1,1.1,0.4,1.4c2.3,1.4,5,2.2,7.7,2.2c4,0,7.8-1.6,10.6-4.4c2.8-2.8,4.4-6.6,4.4-10.6
			S248.4,734.5,245.6,731.7"/> </g> </g> 
    </symbol>
    <symbol id="zjjj" viewBox="-695 692.3 26 34">
        <title>&#x4E13;&#x5BB6;&#x7B80;&#x4ECB;</title> <desc>Created with Sketch.</desc> <g id="Page-1"> <g id="Artboard" transform="translate(-164.000000, -31.000000)"> <path id="&#x4E13;&#x5BB6;&#x7B80;&#x4ECB;" class="st0" d="M-510.2,748.9h-15c-0.6,0-1.1,0.5-1.1,1c0,0.6,0.5,1,1.1,1h15c0.6,0,1.1-0.5,1.1-1
			C-509.1,749.4-509.6,748.9-510.2,748.9L-510.2,748.9z M-510.2,744.5h-15c-0.6,0-1.1,0.5-1.1,1c0,0.6,0.5,1,1.1,1h15
			c0.6,0,1.1-0.5,1.1-1C-509.1,745-509.6,744.5-510.2,744.5L-510.2,744.5z M-526.3,736.8c0,0.6,0.5,1,1.1,1h15c0.6,0,1.1-0.5,1.1-1
			c0-0.6-0.5-1-1.1-1h-15C-525.8,735.8-526.3,736.3-526.3,736.8L-526.3,736.8z M-510.2,740.2h-15c-0.6,0-1.1,0.5-1.1,1
			c0,0.6,0.5,1,1.1,1h15c0.6,0,1.1-0.5,1.1-1C-509.1,740.6-509.6,740.2-510.2,740.2L-510.2,740.2z M-507.2,754.6h-21.7v-29.2h15.7
			v4.6c0,0.6,0.5,1,1.1,1h4.9L-507.2,754.6L-507.2,754.6L-507.2,754.6z M-511,726.8l2.2,2.1h-2.2V726.8L-511,726.8z M-505,729.9
			L-505,729.9C-505,729.9-505,729.9-505,729.9L-505,729.9c0-0.2-0.1-0.3-0.1-0.4c0,0,0-0.1-0.1-0.1c0,0,0,0,0,0c0,0,0,0,0-0.1
			c0,0,0,0,0,0c0,0,0,0,0,0c0,0,0,0,0,0c0,0,0,0,0,0c0,0,0,0,0,0l-5.9-5.6c-0.2-0.2-0.4-0.3-0.6-0.3c0,0-0.1,0-0.1,0h0h0h-17.9
			c-0.6,0-1.1,0.5-1.1,1v31.3c0,0.6,0.5,1,1.1,1h23.8c0.6,0,1.1-0.5,1.1-1L-505,729.9C-505,730-505,729.9-505,729.9L-505,729.9z"/> </g> </g> 
    </symbol></svg>