<svg xmlns="http://www.w3.org/2000/svg">
    <symbol id="1" viewBox="0 0 200 200">
      <g class="transform-group"><g transform="scale(0.1953125, 0.1953125)"><path d="M722.133333 532.266667c-16-4.266667 45.866667-98.133333-17.066667-139.733333C645.333333 352 516.266667 432 512 424.533333c-2.133333-4.266667 33.066667-120.533333-39.466667-131.2C300.8 267.733333 100.266667 534.4 103.466667 675.2 106.666667 846.933333 285.866667 931.2 461.866667 912c206.933333-23.466667 366.933333-122.666667 373.333333-265.6C837.333333 602.666667 809.6 554.666667 722.133333 532.266667L722.133333 532.266667zM693.333333 688c-8.533333 97.066667-131.2 174.933333-274.133333 174.933333-142.933333 0-251.733333-77.866667-243.2-174.933333C184.533333 590.933333 307.2 512 450.133333 512 593.066667 512 701.866667 590.933333 693.333333 688L693.333333 688zM693.333333 688M423.466667 582.4c-76.8 0-141.866667 54.4-145.066667 121.6-3.2 67.2 55.466667 121.6 132.266667 121.6 76.8 0 141.866667-54.4 145.066667-121.6C558.933333 636.8 500.266667 582.4 423.466667 582.4L423.466667 582.4zM376.533333 773.333333c-23.466667 0-43.733333-19.2-43.733333-43.733333 0-24.533333 19.2-43.733333 43.733333-43.733333 23.466667 0 43.733333 19.2 43.733333 43.733333C420.266667 754.133333 400 773.333333 376.533333 773.333333L376.533333 773.333333zM451.2 705.066667c-9.6 0-17.066667-7.466667-17.066667-17.066667 0-9.6 7.466667-17.066667 17.066667-17.066667 9.6 0 17.066667 7.466667 17.066667 17.066667C468.266667 697.6 460.8 705.066667 451.2 705.066667L451.2 705.066667zM451.2 705.066667M917.333333 492.8c-3.2 0-6.4 0-8.533333-1.066667-14.933333-5.333333-23.466667-21.333333-18.133333-36.266667 2.133333-6.4 4.266667-12.8 5.333333-19.2 2.133333-11.733333 3.2-23.466667 3.2-35.2 0-96-77.866667-173.866667-173.866667-173.866667-9.6 0-19.2 1.066667-28.8 2.133333-16 2.133333-30.933333-8.533333-33.066667-23.466667-2.133333-16 8.533333-30.933333 23.466667-33.066667 12.8-2.133333 25.6-3.2 38.4-3.2 126.933333 0 231.466667 103.466667 231.466667 231.466667 0 16-1.066667 30.933333-4.266667 46.933333-2.133333 8.533333-4.266667 17.066667-6.4 25.6C940.8 484.266667 930.133333 492.8 917.333333 492.8L917.333333 492.8zM917.333333 492.8M811.733333 460.8c-3.2 0-6.4 0-8.533333-1.066667-14.933333-5.333333-23.466667-21.333333-18.133333-36.266667 1.066667-2.133333 1.066667-4.266667 2.133333-7.466667 1.066667-4.266667 1.066667-8.533333 1.066667-12.8 0-35.2-28.8-62.933333-62.933333-62.933333-3.2 0-7.466667 0-10.666667 1.066667-16 2.133333-30.933333-8.533333-33.066667-23.466667-2.133333-16 8.533333-30.933333 23.466667-33.066667 6.4-1.066667 12.8-2.133333 20.266667-2.133333 67.2 0 120.533333 54.4 120.533333 120.533333 0 8.533333-1.066667 16-2.133333 24.533333-1.066667 4.266667-2.133333 8.533333-3.2 13.866667C835.2 453.333333 823.466667 460.8 811.733333 460.8L811.733333 460.8zM811.733333 460.8" fill="#272636"/></g></g>
    </symbol>
    <symbol id="2" viewBox="0 0 200 200">
      <g class="transform-group"><g transform="scale(0.1953125, 0.1953125)"><path d="M875.297876 74.351062c41.004611 0 74.351062 33.346451 74.351062 74.351062l0 185.877655c0 41.004611-33.346451 74.351062-74.351062 74.351062l-185.877655 0c-41.004611 0-74.351062-33.346451-74.351062-74.351062L615.06916 148.702124c0-41.004611 33.346451-74.351062 74.351062-74.351062L875.297876 74.351062M875.297876 0l-185.877655 0c-82.120748 0-148.702124 66.581376-148.702124 148.702124l0 185.877655c0 82.120748 66.581376 148.702124 148.702124 148.702124l185.877655 0c82.120748 0 148.702124-66.581376 148.702124-148.702124L1024 148.702124C1024 66.581376 957.418624 0 875.297876 0L875.297876 0zM334.579779 74.351062c41.004611 0 74.351062 33.346451 74.351062 74.351062l0 185.877655c0 41.004611-33.346451 74.351062-74.351062 74.351062L148.702124 408.93084c-41.004611 0-74.351062-33.346451-74.351062-74.351062L74.351062 148.702124c0-41.004611 33.346451-74.351062 74.351062-74.351062L334.579779 74.351062M334.579779 0 148.702124 0C66.581376 0 0 66.581376 0 148.702124l0 185.877655c0 82.120748 66.581376 148.702124 148.702124 148.702124l185.877655 0c82.120748 0 148.702124-66.581376 148.702124-148.702124L483.281902 148.702124C483.281902 66.581376 416.700526 0 334.579779 0L334.579779 0zM334.579779 615.06916c41.004611 0 74.351062 33.346451 74.351062 74.351062l0 185.877655c0 41.004611-33.346451 74.351062-74.351062 74.351062L148.702124 949.648938c-41.004611 0-74.351062-33.346451-74.351062-74.351062l0-185.877655c0-41.004611 33.346451-74.351062 74.351062-74.351062L334.579779 615.06916M334.579779 540.718098 148.702124 540.718098c-82.120748 0-148.702124 66.581376-148.702124 148.702124l0 185.877655c0 82.120748 66.581376 148.702124 148.702124 148.702124l185.877655 0c82.120748 0 148.702124-66.581376 148.702124-148.702124l0-185.877655C483.281902 607.299474 416.700526 540.718098 334.579779 540.718098L334.579779 540.718098zM615.031984 691.576402l371.755309 0c20.558069 0 37.175531-16.654638 37.175531-37.175531s-16.617462-37.175531-37.175531-37.175531l-371.755309 0c-20.558069 0-37.175531 16.654638-37.175531 37.175531S594.473915 691.576402 615.031984 691.576402zM986.787294 765.927464l-371.755309 0c-20.558069 0-37.175531 16.654638-37.175531 37.175531s16.617462 37.175531 37.175531 37.175531l371.755309 0c20.558069 0 37.175531-16.654638 37.175531-37.175531S1007.345362 765.927464 986.787294 765.927464zM986.787294 914.629588l-371.755309 0c-20.558069 0-37.175531 16.654638-37.175531 37.175531s16.617462 37.175531 37.175531 37.175531l371.755309 0c20.558069 0 37.175531-16.654638 37.175531-37.175531S1007.345362 914.629588 986.787294 914.629588z" fill="#272636"/></g></g>
    </symbol>
    <symbol id="3" viewBox="0 0 200 200">
      <g class="transform-group"><g transform="scale(0.1953125, 0.1953125)"><path d="M502.153846 813.948718C502.153846 813.948718 502.153846 810.666667 502.153846 813.948718c13.128205-13.128205 22.974359-26.25641 22.974359-42.666667 0-13.128205-6.564103-29.538462-19.692308-39.384615 0 0 0 0-3.282051-3.282051 9.846154-13.128205 16.410256-22.974359 16.410256-36.102564 0-45.948718-72.205128-85.333333-160.820513-85.333333C269.128205 603.897436 196.923077 643.282051 196.923077 689.230769c0 13.128205 6.564103 26.25641 16.410256 36.102564 0 0 0 0-3.282051 3.282051-13.128205 13.128205-19.692308 26.25641-19.692308 39.384615 0 16.410256 6.564103 29.538462 22.974359 42.666667 0 0 0 0 0 0-13.128205 13.128205-22.974359 26.25641-22.974359 42.666667 0 45.948718 75.487179 85.333333 164.102564 85.333333 91.897436 0 164.102564-39.384615 164.102564-85.333333C521.846154 840.205128 515.282051 823.794872 502.153846 813.948718zM357.74359 640c75.487179 0 124.717949 29.538462 124.717949 49.230769 0 19.692308-49.230769 49.230769-124.717949 49.230769-75.487179 0-124.717949-29.538462-124.717949-49.230769C233.025641 669.538462 282.25641 640 357.74359 640zM357.74359 902.564103c-85.333333 0-128-32.820513-128-49.230769 0-3.282051 3.282051-9.846154 9.846154-16.410256 3.282051-3.282051 3.282051-6.564103 6.564103-9.846154 29.538462 16.410256 72.205128 22.974359 114.871795 22.974359s85.333333-9.846154 114.871795-22.974359c0 3.282051 3.282051 6.564103 6.564103 9.846154 6.564103 6.564103 9.846154 9.846154 9.846154 16.410256C489.025641 873.025641 443.076923 902.564103 357.74359 902.564103zM357.74359 817.230769c-85.333333 0-128-32.820513-128-49.230769 0-3.282051 3.282051-9.846154 9.846154-16.410256 3.282051-3.282051 3.282051-3.282051 3.282051-6.564103 29.538462 16.410256 72.205128 26.25641 114.871795 26.25641 45.948718 0 85.333333-9.846154 114.871795-26.25641 0 3.282051 3.282051 6.564103 3.282051 6.564103 6.564103 6.564103 9.846154 9.846154 9.846154 16.410256C489.025641 787.692308 443.076923 817.230769 357.74359 817.230769zM833.641026 823.794872c9.846154-13.128205 16.410256-22.974359 16.410256-36.102564 0-45.948718-72.205128-85.333333-160.820513-85.333333-88.615385 0-160.820513 39.384615-160.820513 85.333333 0 13.128205 6.564103 26.25641 16.410256 36.102564 0 0 0 0-3.282051 3.282051-13.128205 13.128205-19.692308 26.25641-19.692308 39.384615 0 45.948718 75.487179 85.333333 164.102564 85.333333 91.897436 0 164.102564-39.384615 164.102564-85.333333C853.333333 853.333333 846.769231 836.923077 833.641026 823.794872 833.641026 823.794872 833.641026 823.794872 833.641026 823.794872zM689.230769 738.461538c75.487179 0 124.717949 29.538462 124.717949 49.230769 0 19.692308-49.230769 49.230769-124.717949 49.230769s-124.717949-29.538462-124.717949-49.230769C564.512821 768 613.74359 738.461538 689.230769 738.461538zM689.230769 915.692308c-85.333333 0-128-32.820513-128-49.230769 0-3.282051 3.282051-9.846154 9.846154-16.410256 3.282051-3.282051 3.282051-3.282051 3.282051-6.564103 29.538462 16.410256 72.205128 26.25641 114.871795 26.25641s85.333333-9.846154 114.871795-26.25641c0 3.282051 3.282051 6.564103 3.282051 6.564103 6.564103 6.564103 9.846154 9.846154 9.846154 16.410256C817.230769 882.871795 771.282051 915.692308 689.230769 915.692308zM512 72.205128c-6.564103 0-16.410256 0-22.974359 0C265.846154 85.333333 82.051282 265.846154 65.641026 489.025641c-6.564103 75.487179 9.846154 150.974359 39.384615 219.897436 3.282051 9.846154 16.410256 16.410256 26.25641 16.410256 6.564103 0 13.128205-3.282051 19.692308-6.564103 9.846154-9.846154 13.128205-22.974359 6.564103-32.820513-22.974359-52.512821-36.102564-105.025641-36.102564-164.102564C124.717949 305.230769 298.666667 131.282051 512 131.282051c13.128205 0 29.538462 0 42.666667 3.282051 177.230769 19.692308 324.923077 160.820513 344.615385 341.333333 9.846154 82.051282-6.564103 164.102564-45.948718 233.025641-6.564103 13.128205-3.282051 26.25641 6.564103 36.102564 6.564103 3.282051 13.128205 6.564103 19.692308 6.564103 9.846154 0 19.692308-6.564103 26.25641-16.410256 36.102564-65.641026 55.794872-141.128205 55.794872-216.615385C958.358974 272.410256 758.153846 72.205128 512 72.205128zM505.435897 190.358974m-22.974359 0a0.7 0.7 0 1 0 45.948718 0 0.7 0.7 0 1 0-45.948718 0ZM393.846154 328.205128l-13.128205 6.564103c-6.564103 3.282051-9.846154 13.128205-6.564103 16.410256l108.307692 183.794872 9.846154 13.128205 288.820513 0c3.282051 0 9.846154-3.282051 9.846154-9.846154l0-26.25641c0-3.282051-3.282051-9.846154-9.846154-9.846154l-265.846154 0L413.538462 328.205128C410.25641 324.923077 403.692308 321.641026 393.846154 328.205128zM846.769231 518.564103m-22.974359 0a0.7 0.7 0 1 0 45.948718 0 0.7 0.7 0 1 0-45.948718 0Z" fill="#272636"/></g></g>
    </symbol>
    <symbol id="4" viewBox="0 0 200 200">
      <g class="transform-group"><g transform="scale(0.1953125, 0.1953125)"><path d="M403.562702 80.71254c177.998056 0 322.850162 144.825202 322.850162 322.850162 0 75.358609-25.209217 145.982081-72.910328 204.256536l-20.554794 25.128504-25.182313 20.608602C549.517879 701.230551 478.894406 726.412864 403.562702 726.412864 225.537742 726.412864 80.71254 581.587662 80.71254 403.562702S225.537742 80.71254 403.562702 80.71254M403.562702 0C180.688474 0 0 180.715378 0 403.562702c0 222.901132 180.688474 403.562702 403.562702 403.562702 96.908857 0 185.773364-34.195213 255.347574-91.124458l307.999054 307.97215 57.063766-57.063766L715.974042 658.93718C772.903287 589.36297 807.125404 500.471559 807.125404 403.562702 807.125404 180.715378 626.43693 0 403.562702 0L403.562702 0z" fill="#272636"/></g></g>
    </symbol>
    <symbol id="5" viewBox="0 0 200 200">
      <g class="transform-group"><g transform="scale(0.1953125, 0.1953125)"><path d="M677.944889 28.16l0 71.850667C840.988444 165.888 956.472889 325.575111 956.472889 512c0 245.077333-199.395556 444.472889-444.472889 444.472889S67.527111 757.077333 67.527111 512c0-186.424889 115.484444-346.112 278.528-412.046222L346.055111 28.16C145.066667 97.28 0 287.800889 0 512c0 282.282667 229.717333 512 512 512s512-229.717333 512-512C1024 287.800889 878.933333 97.28 677.944889 28.16zM477.866667 0l68.266667 0 0 568.888889-68.266667 0 0-568.888889Z" fill="#272636"/></g></g>
    </symbol>
    <symbol id="6" viewBox="0 0 200 200">
      <g class="transform-group"><g transform="scale(0.1953125, 0.1953125)"><path d="M256.056889 96.938667l62.862222 0c9.500444 0.113778 17.123556 8.021333 17.123556 17.578667l0 142.336c0 9.671111-7.68 17.635556-17.180444 17.635556L256.113778 274.488889c-9.557333 0-17.180444-7.964444-17.180444-17.635556L238.933333 114.517333C238.933333 104.96 246.499556 97.052444 256.056889 96.938667zM681.358222 114.517333l0 142.336c0 9.671111 7.850667 17.635556 17.351111 17.635556l62.691556 0c9.614222 0 17.294222-7.964444 17.294222-17.635556L778.695111 114.517333c0-9.557333-7.623111-17.464889-17.237333-17.578667L698.595556 96.938667C689.095111 97.052444 681.358222 104.96 681.358222 114.517333zM935.424 267.832889l0 190.805333 0 388.721778c0 56.775111-44.828444 102.912-100.124444 102.912L181.987556 950.272c-54.897778 0-99.555556-45.795556-99.896889-102.343111L82.090667 267.264c0.341333-56.604444 44.999111-102.4 99.896889-102.4l22.186667 0 0 91.932444c0 29.411556 23.324444 53.418667 51.939556 53.418667l62.805333 0c28.615111 0 51.882667-24.064 51.882667-53.418667L370.801778 164.864l275.911111 0 0 91.932444c0 29.411556 23.381333 53.418667 51.939556 53.418667l62.748444 0c28.615111 0 51.996444-24.064 51.996444-53.418667L813.397333 164.864l22.016 0C890.595556 164.864 935.424 210.944 935.424 267.832889zM872.106667 458.638222 145.408 458.638222l0 388.721778c0 20.764444 16.440889 37.774222 36.636444 37.774222l653.312 0c20.309333 0 36.750222-17.009778 36.750222-37.774222L872.106667 458.638222z" fill="#272636"/></g></g>
    </symbol>
    <symbol id="8" viewBox="0 0 200 200">
      <g class="transform-group"><g transform="scale(0.1953125, 0.1953125)"><path d="M984.114088 551.377028l-944.418292 0c-21.749065 0-39.394182-17.645117-39.394182-39.377028 0-21.743347 17.645117-39.394182 39.394182-39.394182l944.418292 0c21.777654 0 39.388464 17.650835 39.388464 39.394182C1023.496834 533.731911 1005.891742 551.377028 984.114088 551.377028L984.114088 551.377028 984.114088 551.377028 984.114088 551.377028zM905.840326 1024 669.535273 1024c-21.771936 0-39.382746-17.617957-39.382746-39.394182 0-21.776224 17.61081-39.382746 39.382746-39.382746l236.305053 0c21.743347 0 39.388464-17.643688 39.388464-39.382746L945.22879 708.918019c0-21.777654 17.599375-39.382746 39.388464-39.382746 21.776224 0 39.371311 17.605092 39.371311 39.382746l0 196.922307C1023.994282 970.976023 970.981741 1024 905.840326 1024L905.840326 1024 905.840326 1024 905.840326 1024zM315.081981 1024l-196.929454 0c-65.12855 0-118.146809-53.023977-118.146809-118.159674L0.005718 708.918019c0-21.777654 17.645117-39.382746 39.382746-39.382746 21.743347 0 39.387034 17.605092 39.387034 39.382746l0 196.922307c0 21.733341 17.679424 39.377028 39.377028 39.377028l196.923737 0c21.743347 0 39.388464 17.61224 39.388464 39.388464C354.464727 1006.382043 336.81961 1024 315.081981 1024L315.081981 1024 315.081981 1024 315.081981 1024zM39.394182 354.453292c-21.743347 0-39.382746-17.639399-39.382746-39.377028l0-196.922307c0-65.147133 53.006823-118.153956 118.141091-118.153956l196.923737 0c21.743347 0 39.388464 17.645117 39.388464 39.382746 0 21.737629-17.645117 39.382746-39.388464 39.382746l-196.923737 0c-21.697605 0-39.377028 17.683712-39.377028 39.388464l0 196.916589C78.775498 336.813892 61.131811 354.453292 39.394182 354.453292L39.394182 354.453292 39.394182 354.453292 39.394182 354.453292zM984.617254 354.453292c-21.789089 0-39.388464-17.639399-39.388464-39.377028l0-196.922307c0-21.699034-17.639399-39.388464-39.388464-39.388464L669.535273 78.765492c-21.771936 0-39.382746-17.645117-39.382746-39.382746 0-21.737629 17.61081-39.382746 39.382746-39.382746l236.305053 0c65.141415 0 118.153956 53.006823 118.153956 118.158244l0 196.918019C1023.994282 336.813892 1006.393478 354.453292 984.617254 354.453292L984.617254 354.453292 984.617254 354.453292 984.617254 354.453292zM984.617254 354.453292" fill="#272636"/></g></g>
    </symbol>
    <symbol id="car" viewBox="0 0 207.2265625 200">
      <g class="transform-group"><g transform="scale(0.1953125, 0.1953125)"><path d="M470.686699 748.445579c25.513521 0 46.202693 20.686374 46.202693 46.211086 0 25.527509-20.689172 46.1943-46.202693 46.1943-25.519116 0-46.20549-20.666791-46.20549-46.1943C424.481209 769.131953 445.167583 748.445579 470.686699 748.445579L470.686699 748.445579zM677.953286 748.445579c25.513521 0 46.199895 20.686374 46.199895 46.211086 0 25.527509-20.686374 46.1943-46.199895 46.1943-25.530306 0-46.208288-20.666791-46.208288-46.1943C631.744998 769.131953 652.42298 748.445579 677.953286 748.445579L677.953286 748.445579zM735.520966 559.869325c71.853293-3.060504 129.176189-62.259146 129.176189-134.87197s-57.321497-131.811467-129.176189-134.874768l0-0.146871L300.334988 289.975716l-22.113117-63.678895c-4.912472-33.797023-35.458759-60.239326-69.608271-60.239326L139.293475 166.057494c-15.309511 0-27.723574 12.408467-27.723574 27.720776 0 15.315107 12.414063 27.723574 27.723574 27.723574l69.321524 0c6.632956 0 13.793247 6.209129 14.730422 12.783337 0.013988 0.095116 0.037767 0.188834 0.043362 0.281152l107.693916 416.685877c4.915269 33.780238 35.46855 60.226737 69.62086 60.226737l364.083822 0c15.315107 0 27.726372-12.411265 27.726372-27.723574 0-15.301119-12.411265-27.720776-27.726372-27.720776L400.704957 656.034598c-6.638551 0-13.81283-6.211927-14.741612-12.783337-0.019583-0.095116-0.034969-0.177643-0.046159-0.269962l-20.110082-82.959508 369.713862 0L735.520966 559.869325zM314.056899 346.565657l421.464067 0 0 0.292342c40.575451 3.00735 72.586248 36.794582 72.586248 78.139355 0 41.343374-32.010797 75.132005-72.586248 78.136557l0 0.29514L352.0782 503.429051 314.056899 346.565657z" fill="#272636"/></g></g>
    </symbol>
    <symbol id="qq" viewBox="0 0 200 200">
      <g class="transform-group"><g transform="scale(0.1953125, 0.1953125)"><path d="M536.004105 0c189.242555 0 342.741342 183.398322 342.741342 409.668431 0 15.102082-0.759008 30.048009-2.047913 44.767387l0 0c84.453388 95.683632 89.8394 243.345866 89.8394 305.263248 0 61.841864-54.328582 16.844087-65.633064-7.514562-11.231525-24.35481-37.488334-14.568344-39.382654 3.796319-1.743286 18.287866-33.616498 53.874201-39.307138 80.584112-5.69064 26.634393 28.302162 53.340464 58.123621 65.558827 29.822739 12.215803 18.740967 46.894657 18.740967 46.894657-31.865532 86.118598-275.512186 52.429142-318.613082 31.865532-43.098337-20.714643-84.299794-5.69064-84.299794-5.69064-153.653661 69.355146-238.031532 59.943704-307.384118 1.89816-69.353866-58.124901 18.742247-101.221958 44.995216-108.662284 26.178732-7.508162 5.615123-26.328486 5.615123-26.328486-43.780548-27.164291-61.614034-63.13077-71.477296-96.744708-9.94006-33.538421-22.23266-15.706216-69.126036 33.008523-39.078027 40.823873-43.934142 3.338099-40.366932-74.966429 1.743286-37.105631 2.428057-73.147626 16.919604-108.053029 34.451023-83.165763 119.585342-144.171821 119.585342-144.171821-1.136592-13.580225-1.669049-27.468918-1.669049-41.503524C193.260203 183.398322 346.686033 0 536.004105 0" fill="#272636"/></g></g>
    </symbol></svg>