<?xml version="1.0" standalone="no"?><!DOCTYPE svg PUBLIC "-//W3C//DTD SVG 1.1//EN" "http://www.w3.org/Graphics/SVG/1.1/DTD/svg11.dtd"><svg width="200" height="200" viewBox="0 0 200 200" version="1.1" xmlns="http://www.w3.org/2000/svg" xmlns:xlink="http://www.w3.org/1999/xlink"><defs><style type="text/css"><![CDATA[

]]></style></defs><g class="transform-group"><g transform="scale(0.1953125, 0.1953125)"><path d="M502.153846 813.948718C502.153846 813.948718 502.153846 810.666667 502.153846 813.948718c13.128205-13.128205 22.974359-26.25641 22.974359-42.666667 0-13.128205-6.564103-29.538462-19.692308-39.384615 0 0 0 0-3.282051-3.282051 9.846154-13.128205 16.410256-22.974359 16.410256-36.102564 0-45.948718-72.205128-85.333333-160.820513-85.333333C269.128205 603.897436 196.923077 643.282051 196.923077 689.230769c0 13.128205 6.564103 26.25641 16.410256 36.102564 0 0 0 0-3.282051 3.282051-13.128205 13.128205-19.692308 26.25641-19.692308 39.384615 0 16.410256 6.564103 29.538462 22.974359 42.666667 0 0 0 0 0 0-13.128205 13.128205-22.974359 26.25641-22.974359 42.666667 0 45.948718 75.487179 85.333333 164.102564 85.333333 91.897436 0 164.102564-39.384615 164.102564-85.333333C521.846154 840.205128 515.282051 823.794872 502.153846 813.948718zM357.74359 640c75.487179 0 124.717949 29.538462 124.717949 49.230769 0 19.692308-49.230769 49.230769-124.717949 49.230769-75.487179 0-124.717949-29.538462-124.717949-49.230769C233.025641 669.538462 282.25641 640 357.74359 640zM357.74359 902.564103c-85.333333 0-128-32.820513-128-49.230769 0-3.282051 3.282051-9.846154 9.846154-16.410256 3.282051-3.282051 3.282051-6.564103 6.564103-9.846154 29.538462 16.410256 72.205128 22.974359 114.871795 22.974359s85.333333-9.846154 114.871795-22.974359c0 3.282051 3.282051 6.564103 6.564103 9.846154 6.564103 6.564103 9.846154 9.846154 9.846154 16.410256C489.025641 873.025641 443.076923 902.564103 357.74359 902.564103zM357.74359 817.230769c-85.333333 0-128-32.820513-128-49.230769 0-3.282051 3.282051-9.846154 9.846154-16.410256 3.282051-3.282051 3.282051-3.282051 3.282051-6.564103 29.538462 16.410256 72.205128 26.25641 114.871795 26.25641 45.948718 0 85.333333-9.846154 114.871795-26.25641 0 3.282051 3.282051 6.564103 3.282051 6.564103 6.564103 6.564103 9.846154 9.846154 9.846154 16.410256C489.025641 787.692308 443.076923 817.230769 357.74359 817.230769zM833.641026 823.794872c9.846154-13.128205 16.410256-22.974359 16.410256-36.102564 0-45.948718-72.205128-85.333333-160.820513-85.333333-88.615385 0-160.820513 39.384615-160.820513 85.333333 0 13.128205 6.564103 26.25641 16.410256 36.102564 0 0 0 0-3.282051 3.282051-13.128205 13.128205-19.692308 26.25641-19.692308 39.384615 0 45.948718 75.487179 85.333333 164.102564 85.333333 91.897436 0 164.102564-39.384615 164.102564-85.333333C853.333333 853.333333 846.769231 836.923077 833.641026 823.794872 833.641026 823.794872 833.641026 823.794872 833.641026 823.794872zM689.230769 738.461538c75.487179 0 124.717949 29.538462 124.717949 49.230769 0 19.692308-49.230769 49.230769-124.717949 49.230769s-124.717949-29.538462-124.717949-49.230769C564.512821 768 613.74359 738.461538 689.230769 738.461538zM689.230769 915.692308c-85.333333 0-128-32.820513-128-49.230769 0-3.282051 3.282051-9.846154 9.846154-16.410256 3.282051-3.282051 3.282051-3.282051 3.282051-6.564103 29.538462 16.410256 72.205128 26.25641 114.871795 26.25641s85.333333-9.846154 114.871795-26.25641c0 3.282051 3.282051 6.564103 3.282051 6.564103 6.564103 6.564103 9.846154 9.846154 9.846154 16.410256C817.230769 882.871795 771.282051 915.692308 689.230769 915.692308zM512 72.205128c-6.564103 0-16.410256 0-22.974359 0C265.846154 85.333333 82.051282 265.846154 65.641026 489.025641c-6.564103 75.487179 9.846154 150.974359 39.384615 219.897436 3.282051 9.846154 16.410256 16.410256 26.25641 16.410256 6.564103 0 13.128205-3.282051 19.692308-6.564103 9.846154-9.846154 13.128205-22.974359 6.564103-32.820513-22.974359-52.512821-36.102564-105.025641-36.102564-164.102564C124.717949 305.230769 298.666667 131.282051 512 131.282051c13.128205 0 29.538462 0 42.666667 3.282051 177.230769 19.692308 324.923077 160.820513 344.615385 341.333333 9.846154 82.051282-6.564103 164.102564-45.948718 233.025641-6.564103 13.128205-3.282051 26.25641 6.564103 36.102564 6.564103 3.282051 13.128205 6.564103 19.692308 6.564103 9.846154 0 19.692308-6.564103 26.25641-16.410256 36.102564-65.641026 55.794872-141.128205 55.794872-216.615385C958.358974 272.410256 758.153846 72.205128 512 72.205128zM505.435897 190.358974m-22.974359 0a0.7 0.7 0 1 0 45.948718 0 0.7 0.7 0 1 0-45.948718 0ZM393.846154 328.205128l-13.128205 6.564103c-6.564103 3.282051-9.846154 13.128205-6.564103 16.410256l108.307692 183.794872 9.846154 13.128205 288.820513 0c3.282051 0 9.846154-3.282051 9.846154-9.846154l0-26.25641c0-3.282051-3.282051-9.846154-9.846154-9.846154l-265.846154 0L413.538462 328.205128C410.25641 324.923077 403.692308 321.641026 393.846154 328.205128zM846.769231 518.564103m-22.974359 0a0.7 0.7 0 1 0 45.948718 0 0.7 0.7 0 1 0-45.948718 0Z" fill="#272636"></path></g></g></svg>