<?xml version="1.0" standalone="no"?><!DOCTYPE svg PUBLIC "-//W3C//DTD SVG 1.1//EN" "http://www.w3.org/Graphics/SVG/1.1/DTD/svg11.dtd"><svg width="200" height="200" viewBox="0 0 200 200" version="1.1" xmlns="http://www.w3.org/2000/svg" xmlns:xlink="http://www.w3.org/1999/xlink"><defs><style type="text/css"><![CDATA[

]]></style></defs><g class="transform-group"><g transform="scale(0.1953125, 0.1953125)"><path d="M677.944889 28.16l0 71.850667C840.988444 165.888 956.472889 325.575111 956.472889 512c0 245.077333-199.395556 444.472889-444.472889 444.472889S67.527111 757.077333 67.527111 512c0-186.424889 115.484444-346.112 278.528-412.046222L346.055111 28.16C145.066667 97.28 0 287.800889 0 512c0 282.282667 229.717333 512 512 512s512-229.717333 512-512C1024 287.800889 878.933333 97.28 677.944889 28.16zM477.866667 0l68.266667 0 0 568.888889-68.266667 0 0-568.888889Z" fill="#272636"></path></g></g></svg>