<?xml version="1.0" standalone="no"?><!DOCTYPE svg PUBLIC "-//W3C//DTD SVG 1.1//EN" "http://www.w3.org/Graphics/SVG/1.1/DTD/svg11.dtd"><svg width="200" height="200" viewBox="0 0 200 200" version="1.1" xmlns="http://www.w3.org/2000/svg" xmlns:xlink="http://www.w3.org/1999/xlink"><defs><style type="text/css"><![CDATA[

]]></style></defs><g class="transform-group"><g transform="scale(0.1953125, 0.1953125)"><path d="M256.056889 96.938667l62.862222 0c9.500444 0.113778 17.123556 8.021333 17.123556 17.578667l0 142.336c0 9.671111-7.68 17.635556-17.180444 17.635556L256.113778 274.488889c-9.557333 0-17.180444-7.964444-17.180444-17.635556L238.933333 114.517333C238.933333 104.96 246.499556 97.052444 256.056889 96.938667zM681.358222 114.517333l0 142.336c0 9.671111 7.850667 17.635556 17.351111 17.635556l62.691556 0c9.614222 0 17.294222-7.964444 17.294222-17.635556L778.695111 114.517333c0-9.557333-7.623111-17.464889-17.237333-17.578667L698.595556 96.938667C689.095111 97.052444 681.358222 104.96 681.358222 114.517333zM935.424 267.832889l0 190.805333 0 388.721778c0 56.775111-44.828444 102.912-100.124444 102.912L181.987556 950.272c-54.897778 0-99.555556-45.795556-99.896889-102.343111L82.090667 267.264c0.341333-56.604444 44.999111-102.4 99.896889-102.4l22.186667 0 0 91.932444c0 29.411556 23.324444 53.418667 51.939556 53.418667l62.805333 0c28.615111 0 51.882667-24.064 51.882667-53.418667L370.801778 164.864l275.911111 0 0 91.932444c0 29.411556 23.381333 53.418667 51.939556 53.418667l62.748444 0c28.615111 0 51.996444-24.064 51.996444-53.418667L813.397333 164.864l22.016 0C890.595556 164.864 935.424 210.944 935.424 267.832889zM872.106667 458.638222 145.408 458.638222l0 388.721778c0 20.764444 16.440889 37.774222 36.636444 37.774222l653.312 0c20.309333 0 36.750222-17.009778 36.750222-37.774222L872.106667 458.638222z" fill="#272636"></path></g></g></svg>