<?xml version="1.0" standalone="no"?><!DOCTYPE svg PUBLIC "-//W3C//DTD SVG 1.1//EN" "http://www.w3.org/Graphics/SVG/1.1/DTD/svg11.dtd"><svg width="200" height="200" viewBox="0 0 200 200" version="1.1" xmlns="http://www.w3.org/2000/svg" xmlns:xlink="http://www.w3.org/1999/xlink"><defs><style type="text/css"><![CDATA[

]]></style></defs><g class="transform-group"><g transform="scale(0.1953125, 0.1953125)"><path d="M984.114088 551.377028l-944.418292 0c-21.749065 0-39.394182-17.645117-39.394182-39.377028 0-21.743347 17.645117-39.394182 39.394182-39.394182l944.418292 0c21.777654 0 39.388464 17.650835 39.388464 39.394182C1023.496834 533.731911 1005.891742 551.377028 984.114088 551.377028L984.114088 551.377028 984.114088 551.377028 984.114088 551.377028zM905.840326 1024 669.535273 1024c-21.771936 0-39.382746-17.617957-39.382746-39.394182 0-21.776224 17.61081-39.382746 39.382746-39.382746l236.305053 0c21.743347 0 39.388464-17.643688 39.388464-39.382746L945.22879 708.918019c0-21.777654 17.599375-39.382746 39.388464-39.382746 21.776224 0 39.371311 17.605092 39.371311 39.382746l0 196.922307C1023.994282 970.976023 970.981741 1024 905.840326 1024L905.840326 1024 905.840326 1024 905.840326 1024zM315.081981 1024l-196.929454 0c-65.12855 0-118.146809-53.023977-118.146809-118.159674L0.005718 708.918019c0-21.777654 17.645117-39.382746 39.382746-39.382746 21.743347 0 39.387034 17.605092 39.387034 39.382746l0 196.922307c0 21.733341 17.679424 39.377028 39.377028 39.377028l196.923737 0c21.743347 0 39.388464 17.61224 39.388464 39.388464C354.464727 1006.382043 336.81961 1024 315.081981 1024L315.081981 1024 315.081981 1024 315.081981 1024zM39.394182 354.453292c-21.743347 0-39.382746-17.639399-39.382746-39.377028l0-196.922307c0-65.147133 53.006823-118.153956 118.141091-118.153956l196.923737 0c21.743347 0 39.388464 17.645117 39.388464 39.382746 0 21.737629-17.645117 39.382746-39.388464 39.382746l-196.923737 0c-21.697605 0-39.377028 17.683712-39.377028 39.388464l0 196.916589C78.775498 336.813892 61.131811 354.453292 39.394182 354.453292L39.394182 354.453292 39.394182 354.453292 39.394182 354.453292zM984.617254 354.453292c-21.789089 0-39.388464-17.639399-39.388464-39.377028l0-196.922307c0-21.699034-17.639399-39.388464-39.388464-39.388464L669.535273 78.765492c-21.771936 0-39.382746-17.645117-39.382746-39.382746 0-21.737629 17.61081-39.382746 39.382746-39.382746l236.305053 0c65.141415 0 118.153956 53.006823 118.153956 118.158244l0 196.918019C1023.994282 336.813892 1006.393478 354.453292 984.617254 354.453292L984.617254 354.453292 984.617254 354.453292 984.617254 354.453292zM984.617254 354.453292" fill="#272636"></path></g></g></svg>