<?xml version="1.0" standalone="no"?><!DOCTYPE svg PUBLIC "-//W3C//DTD SVG 1.1//EN" "http://www.w3.org/Graphics/SVG/1.1/DTD/svg11.dtd"><svg width="200" height="200" viewBox="0 0 200 200" version="1.1" xmlns="http://www.w3.org/2000/svg" xmlns:xlink="http://www.w3.org/1999/xlink"><defs><style type="text/css"><![CDATA[

]]></style></defs><g class="transform-group"><g transform="scale(0.1953125, 0.1953125)"><path d="M722.133333 532.266667c-16-4.266667 45.866667-98.133333-17.066667-139.733333C645.333333 352 516.266667 432 512 424.533333c-2.133333-4.266667 33.066667-120.533333-39.466667-131.2C300.8 267.733333 100.266667 534.4 103.466667 675.2 106.666667 846.933333 285.866667 931.2 461.866667 912c206.933333-23.466667 366.933333-122.666667 373.333333-265.6C837.333333 602.666667 809.6 554.666667 722.133333 532.266667L722.133333 532.266667zM693.333333 688c-8.533333 97.066667-131.2 174.933333-274.133333 174.933333-142.933333 0-251.733333-77.866667-243.2-174.933333C184.533333 590.933333 307.2 512 450.133333 512 593.066667 512 701.866667 590.933333 693.333333 688L693.333333 688zM693.333333 688M423.466667 582.4c-76.8 0-141.866667 54.4-145.066667 121.6-3.2 67.2 55.466667 121.6 132.266667 121.6 76.8 0 141.866667-54.4 145.066667-121.6C558.933333 636.8 500.266667 582.4 423.466667 582.4L423.466667 582.4zM376.533333 773.333333c-23.466667 0-43.733333-19.2-43.733333-43.733333 0-24.533333 19.2-43.733333 43.733333-43.733333 23.466667 0 43.733333 19.2 43.733333 43.733333C420.266667 754.133333 400 773.333333 376.533333 773.333333L376.533333 773.333333zM451.2 705.066667c-9.6 0-17.066667-7.466667-17.066667-17.066667 0-9.6 7.466667-17.066667 17.066667-17.066667 9.6 0 17.066667 7.466667 17.066667 17.066667C468.266667 697.6 460.8 705.066667 451.2 705.066667L451.2 705.066667zM451.2 705.066667M917.333333 492.8c-3.2 0-6.4 0-8.533333-1.066667-14.933333-5.333333-23.466667-21.333333-18.133333-36.266667 2.133333-6.4 4.266667-12.8 5.333333-19.2 2.133333-11.733333 3.2-23.466667 3.2-35.2 0-96-77.866667-173.866667-173.866667-173.866667-9.6 0-19.2 1.066667-28.8 2.133333-16 2.133333-30.933333-8.533333-33.066667-23.466667-2.133333-16 8.533333-30.933333 23.466667-33.066667 12.8-2.133333 25.6-3.2 38.4-3.2 126.933333 0 231.466667 103.466667 231.466667 231.466667 0 16-1.066667 30.933333-4.266667 46.933333-2.133333 8.533333-4.266667 17.066667-6.4 25.6C940.8 484.266667 930.133333 492.8 917.333333 492.8L917.333333 492.8zM917.333333 492.8M811.733333 460.8c-3.2 0-6.4 0-8.533333-1.066667-14.933333-5.333333-23.466667-21.333333-18.133333-36.266667 1.066667-2.133333 1.066667-4.266667 2.133333-7.466667 1.066667-4.266667 1.066667-8.533333 1.066667-12.8 0-35.2-28.8-62.933333-62.933333-62.933333-3.2 0-7.466667 0-10.666667 1.066667-16 2.133333-30.933333-8.533333-33.066667-23.466667-2.133333-16 8.533333-30.933333 23.466667-33.066667 6.4-1.066667 12.8-2.133333 20.266667-2.133333 67.2 0 120.533333 54.4 120.533333 120.533333 0 8.533333-1.066667 16-2.133333 24.533333-1.066667 4.266667-2.133333 8.533333-3.2 13.866667C835.2 453.333333 823.466667 460.8 811.733333 460.8L811.733333 460.8zM811.733333 460.8" fill="#272636"></path></g></g></svg>