<?xml version="1.0" standalone="no"?><!DOCTYPE svg PUBLIC "-//W3C//DTD SVG 1.1//EN" "http://www.w3.org/Graphics/SVG/1.1/DTD/svg11.dtd"><svg width="200" height="200" viewBox="0 0 200 200" version="1.1" xmlns="http://www.w3.org/2000/svg" xmlns:xlink="http://www.w3.org/1999/xlink"><defs><style type="text/css"><![CDATA[

]]></style></defs><g class="transform-group"><g transform="scale(0.1953125, 0.1953125)"><path d="M875.297876 74.351062c41.004611 0 74.351062 33.346451 74.351062 74.351062l0 185.877655c0 41.004611-33.346451 74.351062-74.351062 74.351062l-185.877655 0c-41.004611 0-74.351062-33.346451-74.351062-74.351062L615.06916 148.702124c0-41.004611 33.346451-74.351062 74.351062-74.351062L875.297876 74.351062M875.297876 0l-185.877655 0c-82.120748 0-148.702124 66.581376-148.702124 148.702124l0 185.877655c0 82.120748 66.581376 148.702124 148.702124 148.702124l185.877655 0c82.120748 0 148.702124-66.581376 148.702124-148.702124L1024 148.702124C1024 66.581376 957.418624 0 875.297876 0L875.297876 0zM334.579779 74.351062c41.004611 0 74.351062 33.346451 74.351062 74.351062l0 185.877655c0 41.004611-33.346451 74.351062-74.351062 74.351062L148.702124 408.93084c-41.004611 0-74.351062-33.346451-74.351062-74.351062L74.351062 148.702124c0-41.004611 33.346451-74.351062 74.351062-74.351062L334.579779 74.351062M334.579779 0 148.702124 0C66.581376 0 0 66.581376 0 148.702124l0 185.877655c0 82.120748 66.581376 148.702124 148.702124 148.702124l185.877655 0c82.120748 0 148.702124-66.581376 148.702124-148.702124L483.281902 148.702124C483.281902 66.581376 416.700526 0 334.579779 0L334.579779 0zM334.579779 615.06916c41.004611 0 74.351062 33.346451 74.351062 74.351062l0 185.877655c0 41.004611-33.346451 74.351062-74.351062 74.351062L148.702124 949.648938c-41.004611 0-74.351062-33.346451-74.351062-74.351062l0-185.877655c0-41.004611 33.346451-74.351062 74.351062-74.351062L334.579779 615.06916M334.579779 540.718098 148.702124 540.718098c-82.120748 0-148.702124 66.581376-148.702124 148.702124l0 185.877655c0 82.120748 66.581376 148.702124 148.702124 148.702124l185.877655 0c82.120748 0 148.702124-66.581376 148.702124-148.702124l0-185.877655C483.281902 607.299474 416.700526 540.718098 334.579779 540.718098L334.579779 540.718098zM615.031984 691.576402l371.755309 0c20.558069 0 37.175531-16.654638 37.175531-37.175531s-16.617462-37.175531-37.175531-37.175531l-371.755309 0c-20.558069 0-37.175531 16.654638-37.175531 37.175531S594.473915 691.576402 615.031984 691.576402zM986.787294 765.927464l-371.755309 0c-20.558069 0-37.175531 16.654638-37.175531 37.175531s16.617462 37.175531 37.175531 37.175531l371.755309 0c20.558069 0 37.175531-16.654638 37.175531-37.175531S1007.345362 765.927464 986.787294 765.927464zM986.787294 914.629588l-371.755309 0c-20.558069 0-37.175531 16.654638-37.175531 37.175531s16.617462 37.175531 37.175531 37.175531l371.755309 0c20.558069 0 37.175531-16.654638 37.175531-37.175531S1007.345362 914.629588 986.787294 914.629588z" fill="#272636"></path></g></g></svg>