<?xml version="1.0" standalone="no"?><!DOCTYPE svg PUBLIC "-//W3C//DTD SVG 1.1//EN" "http://www.w3.org/Graphics/SVG/1.1/DTD/svg11.dtd"><svg width="200" height="200" viewBox="0 0 200 200" version="1.1" xmlns="http://www.w3.org/2000/svg" xmlns:xlink="http://www.w3.org/1999/xlink"><defs><style type="text/css"><![CDATA[

]]></style></defs><g class="transform-group"><g transform="scale(0.1953125, 0.1953125)"><path d="M403.562702 80.71254c177.998056 0 322.850162 144.825202 322.850162 322.850162 0 75.358609-25.209217 145.982081-72.910328 204.256536l-20.554794 25.128504-25.182313 20.608602C549.517879 701.230551 478.894406 726.412864 403.562702 726.412864 225.537742 726.412864 80.71254 581.587662 80.71254 403.562702S225.537742 80.71254 403.562702 80.71254M403.562702 0C180.688474 0 0 180.715378 0 403.562702c0 222.901132 180.688474 403.562702 403.562702 403.562702 96.908857 0 185.773364-34.195213 255.347574-91.124458l307.999054 307.97215 57.063766-57.063766L715.974042 658.93718C772.903287 589.36297 807.125404 500.471559 807.125404 403.562702 807.125404 180.715378 626.43693 0 403.562702 0L403.562702 0z" fill="#272636"></path></g></g></svg>