<?xml version="1.0" standalone="no"?><!DOCTYPE svg PUBLIC "-//W3C//DTD SVG 1.1//EN" "http://www.w3.org/Graphics/SVG/1.1/DTD/svg11.dtd"><svg width="207.2265625" height="200" viewBox="0 0 207.2265625 200" version="1.1" xmlns="http://www.w3.org/2000/svg" xmlns:xlink="http://www.w3.org/1999/xlink"><defs><style type="text/css"><![CDATA[

]]></style></defs><g class="transform-group"><g transform="scale(0.1953125, 0.1953125)"><path d="M470.686699 748.445579c25.513521 0 46.202693 20.686374 46.202693 46.211086 0 25.527509-20.689172 46.1943-46.202693 46.1943-25.519116 0-46.20549-20.666791-46.20549-46.1943C424.481209 769.131953 445.167583 748.445579 470.686699 748.445579L470.686699 748.445579zM677.953286 748.445579c25.513521 0 46.199895 20.686374 46.199895 46.211086 0 25.527509-20.686374 46.1943-46.199895 46.1943-25.530306 0-46.208288-20.666791-46.208288-46.1943C631.744998 769.131953 652.42298 748.445579 677.953286 748.445579L677.953286 748.445579zM735.520966 559.869325c71.853293-3.060504 129.176189-62.259146 129.176189-134.87197s-57.321497-131.811467-129.176189-134.874768l0-0.146871L300.334988 289.975716l-22.113117-63.678895c-4.912472-33.797023-35.458759-60.239326-69.608271-60.239326L139.293475 166.057494c-15.309511 0-27.723574 12.408467-27.723574 27.720776 0 15.315107 12.414063 27.723574 27.723574 27.723574l69.321524 0c6.632956 0 13.793247 6.209129 14.730422 12.783337 0.013988 0.095116 0.037767 0.188834 0.043362 0.281152l107.693916 416.685877c4.915269 33.780238 35.46855 60.226737 69.62086 60.226737l364.083822 0c15.315107 0 27.726372-12.411265 27.726372-27.723574 0-15.301119-12.411265-27.720776-27.726372-27.720776L400.704957 656.034598c-6.638551 0-13.81283-6.211927-14.741612-12.783337-0.019583-0.095116-0.034969-0.177643-0.046159-0.269962l-20.110082-82.959508 369.713862 0L735.520966 559.869325zM314.056899 346.565657l421.464067 0 0 0.292342c40.575451 3.00735 72.586248 36.794582 72.586248 78.139355 0 41.343374-32.010797 75.132005-72.586248 78.136557l0 0.29514L352.0782 503.429051 314.056899 346.565657z" fill="#272636"></path></g></g></svg>