<?xml version="1.0" encoding="utf-8"?>
<!-- Generator: Adobe Illustrator 19.0.0, SVG Export Plug-In . SVG Version: 6.00 Build 0)  -->
<svg version="1.1" id="图层_1" xmlns="http://www.w3.org/2000/svg" xmlns:xlink="http://www.w3.org/1999/xlink" x="0px" y="0px"
	 viewBox="-693 694.3 30 30" style="enable-background:new -693 694.3 30 30;" xml:space="preserve">
<title>待补充</title>
<desc>Created with Sketch.</desc>
<g id="Page-1">
	<g id="Artboard" transform="translate(-831.000000, -34.000000)">
		<path id="待补充" d="M149.5,746.5L149.5,746.5c0.5,0,1-0.4,1-1v-2.9h2.9c0.5,0,1-0.4,1-1c0-0.5-0.4-1-1-1h-2.9v-2.9
			c0-0.5-0.4-1-1-1h0c-0.5,0-1,0.4-1,1v2.9h-2.9c-0.5,0-1,0.4-1,1c0,0.5,0.4,1,1,1h2.9v2.9C148.5,746.1,149,746.5,149.5,746.5
			L149.5,746.5z M166.2,738.8c-0.9-0.5-2-0.3-2.5,0.5l-3,5.3l3.3,2l3-5.3C167.5,740.4,167,739.3,166.2,738.8L166.2,738.8z
			 M156,752.9c-0.3,0.6-1,3.1-0.7,4.2l-0.3,0.6c-0.1,0.2,0,0.5,0.2,0.6c0,0,0.1,0,0.1,0.1c0.2,0,0.4,0,0.4-0.2l0.3-0.6
			c1.1-0.3,2.8-2,3.2-2.7l4.1-7.3l-3.3-2L156,752.9z M157.9,743.9c-0.2,0.4-0.1,0.9,0.3,1.2c0.4,0.2,0.9,0.1,1.1-0.3l3-5.3
			c0.2-0.4,0.1-0.9-0.3-1.2c-0.4-0.2-0.9-0.1-1.1,0.3L157.9,743.9z M159.1,735v3.5l0.7-1.2c0.3-0.5,0.7-0.9,1.2-1.1v-2.1l-1.9-1.9v0
			l-1.9-1.9h0l-1.9-1.9h-15.3c-1.1,0-1.9,0.9-1.9,1.9v23.9c0,1.1,0.9,1.9,1.9,1.9c0,0,8.2,0,13.9,0l0.3-1.9h-14.3v-23.9h14.4v3.5
			c0,0.7,0.6,1.3,1.3,1.3H159.1z"/>
	</g>
</g>
</svg>
