<?xml version="1.0" standalone="no"?><!DOCTYPE svg PUBLIC "-//W3C//DTD SVG 1.1//EN" "http://www.w3.org/Graphics/SVG/1.1/DTD/svg11.dtd"><svg class="icon" style="" viewBox="0 0 1024 1024" version="1.1" xmlns="http://www.w3.org/2000/svg" p-id="2756" xmlns:xlink="http://www.w3.org/1999/xlink" width="200" height="200"><defs><style type="text/css"><![CDATA[

]]></style></defs><path d="M522.968819 958.797999l-166.605505-0.138146c-57.421804-0.092098-105.825211-0.206708-149.71993-0.022513-0.092098 0-0.184195 0-0.276293 0-44.400233 0-73.479525-31.748075-75.872015-82.95841-0.046049-141.392264 86.36295-236.358149 243.306398-268.497127 5.935176-0.230244 10.674107 0.575098 15.46011 2.369977-42.836621-30.413684-77.298504-77.252455-96.439446-134.720308-20.658506-13.412474-33.772174-36.026518-39.201837-67.382667-5.337565-31.057343 2.346441-52.521191 13.06762-66.11786L266.687922 132.348284l11.180644-6.901177c4.095271-2.5071 101.729939-61.838394 220.484623-61.838394 113.969705 0 225.822189 58.595536 230.515071 61.080124l12.515035 6.64842 0 203.599048c13.573133 12.81384 25.260314 35.980469 18.910699 72.351841-6.579859 37.959543-24.385387 57.766658-41.08779 68.095911-34.738176 103.685477-119.352295 172.633802-213.07691 172.633802-36.440957 0-71.547523-10.42135-102.83511-29.262464 18.956747 18.3356 33.219589 58.848293 55.351656 124.758422 14.033621 41.847084 37.360909 111.254873 51.302433 123.471103 13.573133-11.4334 37.038568-81.393775 51.164287-123.471103 32.069393-95.472422 45.596478-138.102335 80.749092-136.813992C802.90037 639.320781 889.308345 734.287689 889.308345 874.574782c-2.438539 52.29197-31.471782 84.062558-75.872015 84.062558-0.092098 0-0.184195 0-0.230244 0l-0.046049 0c-44.032866-0.11461-92.298126-0.023536-149.765979 0.022513L522.968819 958.797999zM543.903617 899.328559l0 12.33084 119.444393-0.11461c57.513902-0.092098 105.825211-0.206708 149.996223-0.022513 6.856152 0.436952 27.054169 0.252757 28.895097-38.051641-0.046049-115.027803-66.071811-188.714036-196.329481-218.11567-10.996448 16.47216-28.296463 67.958788-40.121789 103.156428C582.093405 829.046866 565.160757 877.128955 543.903617 899.328559zM262.500553 911.430178c28.756951 0 59.722196 0.068562 93.954859 0.11461l119.398344 0.11461 0-12.33084c-21.25714-22.223141-38.188764-70.281693-61.884442-140.817166-11.870352-35.45142-29.354562-87.443561-40.352033-103.524818-128.785132 28.388561-196.053188 102.397135-196.053188 219.587184 1.794879 36.970006 21.165042 37.20025 28.941146 36.94647C224.356814 911.452691 242.899122 911.430178 262.500553 911.430178zM299.17073 383.591445c-0.36839 4.163833-0.230244 9.385764 0.919952 15.873526 5.15337 29.999245 18.082844 36.050054 22.361287 38.028105l9.56996 4.486174 3.037173 10.122545c26.594705 89.008196 95.335299 148.799978 171.069167 148.799978 75.641771 0 144.336316-59.722196 171.023118-148.592246l3.128247-10.536984 10.122545-4.348028c4.508687-1.932002 18.173918-7.822153 23.511483-38.2123 1.150196-6.718005 1.242294-12.078083 0.781806-16.310477l-12.883425 16.632819-15.506159-39.638789c-3.358491-9.961886-9.800203-20.475334-16.426111-26.7789-0.552585-0.575098-1.150196-1.104147-1.702782-1.656733-30.367635-17.944697-83.371826-39.247886-164.166967-39.247886-68.326155 0-116.592438 14.999622-148.201343 30.390147-5.015224 3.542686-9.616008 7.315616-13.665231 11.295254-7.822153 7.684006-13.250792 15.851013-16.149818 24.316825l-14.309914 41.847084L299.17073 383.591445zM313.802986 159.310356l0 132.788306c5.107321-3.083222 10.720156-6.233981 16.84055-9.340739 33.818223-23.028483 80.979336-37.637202 137.343041-42.560328l0-23.787776-46.701648 0 0-72.489988 46.701648 0L467.986577 112.171756C397.174811 118.843712 337.681836 146.703223 313.802986 159.310356zM540.03859 238.633982c56.547901 1.587148 105.963357 10.697643 154.228617 52.913117L694.267207 160.207795c-25.673729-11.962449-87.467097-38.096666-154.228617-46.678112l0 30.390147 46.88482 0 0 72.489988-46.88482 0L540.03859 238.633982z" p-id="2757"></path></svg>