<?xml version="1.0" encoding="utf-8"?>
<!-- Generator: Adobe Illustrator 19.0.0, SVG Export Plug-In . SVG Version: 6.00 Build 0)  -->
<svg version="1.1" id="图层_1" xmlns="http://www.w3.org/2000/svg" xmlns:xlink="http://www.w3.org/1999/xlink" x="0px" y="0px"
	 viewBox="-693 694.3 30 30" style="enable-background:new -693 694.3 30 30;" xml:space="preserve">
<title>待完成</title>
<desc>Created with Sketch.</desc>
<g id="Page-1">
	<g id="Artboard" transform="translate(-748.000000, -34.000000)">
		<g id="待完成" transform="translate(748.000000, 34.000000)">
			<path id="Fill-1" d="M-678,696.7c-7,0-12.6,5.7-12.6,12.6S-685,722-678,722c7,0,12.6-5.7,12.6-12.6
				C-665.4,702.4-671,696.7-678,696.7 M-678,724.3c-8.3,0-15-6.7-15-15c0-8.3,6.7-15,15-15c8.3,0,15,6.7,15,15
				C-663,717.6-669.7,724.3-678,724.3"/>
			<path id="Fill-4" d="M-672,711.8h-8.5v-10.8c0-0.7,0.5-1.2,1.2-1.2c0.7,0,1.2,0.5,1.2,1.2v8.4h6.1c0.7,0,1.2,0.5,1.2,1.2
				C-670.8,711.3-671.4,711.8-672,711.8"/>
		</g>
	</g>
</g>
</svg>
