<?xml version="1.0" standalone="no"?><!DOCTYPE svg PUBLIC "-//W3C//DTD SVG 1.1//EN" "http://www.w3.org/Graphics/SVG/1.1/DTD/svg11.dtd"><svg class="icon" style="" viewBox="0 0 1024 1024" version="1.1" xmlns="http://www.w3.org/2000/svg" p-id="1918" xmlns:xlink="http://www.w3.org/1999/xlink" width="200" height="200"><defs><style type="text/css"><![CDATA[

]]></style></defs><path d="M230.882451 84.193601c-236.28204 155.288197-301.977047 472.664073-146.68885 708.946114 155.288197 236.28204 472.664073 301.977047 708.946114 146.68885 236.28204-155.288197 301.977047-472.664073 146.68885-708.946114C784.540368-5.39959 467.164491-71.094596 230.882451 84.193601zM770.04147 904.831225c-216.983507 142.589162-508.36136 82.193753-650.950522-134.689762-142.589162-216.983507-82.193753-508.36136 134.689762-650.950522 216.983507-142.589162 508.36136-82.193753 650.950522 134.689762C1047.320394 470.764218 987.024977 762.242063 770.04147 904.831225z" p-id="1919"></path><path d="M270.579434 144.489018c-202.884579 133.289869-259.380285 405.969143-125.990424 608.853722 133.289869 202.884579 405.969143 259.380285 608.853722 125.990424s259.380285-405.969143 125.990424-608.853722C746.043294 67.594862 473.464013 11.199149 270.579434 144.489018zM741.943606 861.934485c-193.285309 126.990348-452.965571 73.294429-579.955918-119.99088-126.990348-193.285309-73.294429-452.965571 119.99088-579.955918 193.285309-126.990348 452.965571-73.294429 579.955918 119.99088C989.024825 475.263876 935.228914 734.944138 741.943606 861.934485z" p-id="1920"></path><path d="M291.077876 499.662021c3.799711-67.594862 38.497074-132.48993 99.392445-172.486889s134.289793-45.996504 197.784967-22.698275l21.898336-14.398906c-72.894459-32.197553-159.98784-27.89788-231.582398 19.098548s-109.99164 125.290477-109.391685 204.984419L291.077876 499.662021z" p-id="1921"></path><path d="M732.844297 524.260152c-3.799711 67.594862-38.497074 132.48993-99.392445 172.486889-60.895371 39.99696-134.289793 45.996504-197.784967 22.698275L413.76855 733.944214c72.894459 32.197553 159.98784 27.89788 231.582398-19.098548s109.99164-125.290477 109.391685-204.984419L732.844297 524.260152z" p-id="1922"></path><path d="M317.075899 643.451092l182.586122-119.99088 12.49905 18.998556-56.795683 37.397157 28.597826 43.496694c4.199681 6.399514 8.899324 7.799407 14.198921 4.399666l26.198009-17.198693c2.399818-1.499886 3.299749-4.099688 2.699795-7.699415-0.699947-3.499734-5.599574-12.799027-14.498898-27.997872l22.598282-6.499506c12.199073 22.198313 17.798647 36.397233 16.898716 42.49677-0.899932 6.199529-4.799635 11.499126-11.799103 16.098776l-35.997264 23.698199c-14.298913 9.399286-26.697971 5.999544-37.297165-10.099232L435.466901 592.754945l-31.197629 20.498442 0.39997 0.599954c12.49905 20.798419 17.598662 40.896891 15.198845 60.395409-2.89978 18.198617-13.798951 37.997112-32.597522 59.295493L364.472297 723.245027c18.398602-20.098472 28.997796-37.297165 31.597598-51.796063 1.599878-14.498898-2.09984-29.497758-10.899172-44.696603l-0.39997-0.599954-55.195805 36.297241L317.075899 643.451092zM446.666049 446.766042l32.297545 49.096268-20.198465 13.298989-19.698503-29.99772-139.089428 91.393053 19.698503 29.99772L299.477237 613.853342l-32.297545-49.096268 77.894079-51.196109c-5.39959-4.199681-11.399134-8.299369-18.198617-12.199073l19.798495-18.398602c5.799559 3.999696 12.699035 9.299293 20.598434 15.998784L446.666049 446.766042zM323.475413 583.755629l117.891039-77.394117 12.49905 18.998556-117.891039 77.394117L323.475413 583.755629z" p-id="1923"></path><path d="M603.954094 311.876295c14.59889 1.099916 27.597902 3.099764 38.897043 6.099536l-3.299749 15.898792 24.9981-16.398754 12.49905 18.898564-62.09528 40.796899c17.798647 23.698199 32.797507 41.196869 45.096572 52.296025 2.599802 2.49981 5.899552 5.299597 9.799255 8.499354-1.499886-21.298381-5.699567-43.596686-12.799027-66.994908l23.198237-4.199681c9.399286 32.797507 13.798951 62.49525 13.198997 89.093228 5.299597 3.299749 10.39921 5.999544 15.198845 8.199377 12.49905 5.099612 20.39845 6.599498 23.698199 4.399666 2.799787-1.799863-1.199909-13.798951-11.999088-35.897271l24.198161-2.199833c13.698959 32.297545 15.498822 51.796063 5.599574 58.395561-9.199301 5.999544-22.798267 6.099536-40.896891 0.299977-5.599574-1.899856-11.599118-4.499658-17.998632-7.8994-3.699719 24.698123-11.999088 47.196413-25.098092 67.49487l-22.198313-9.299293c14.198921-22.198313 22.49829-46.296481 24.9981-72.194513-7.199453-5.199605-15.098852-11.599118-23.698199-19.298533-15.298837-13.598966-32.09756-32.697515-50.496162-57.395637l-67.0949 44.096648 19.99848 30.39769 50.996124-33.497454c24.298153 37.897119 38.097104 62.895219 41.296861 75.094292 2.299825 10.799179-1.799863 19.898488-12.49905 27.297925-4.299673 2.799787-10.299217 6.299521-17.998632 10.299217l-17.798647-13.898944c11.499126-6.699491 18.698579-11.099156 21.598358-12.999012 3.499734-2.49981 4.399666-6.499506 2.599802-11.899096-1.999848-5.39959-10.199225-19.59851-24.498138-42.296785l-31.397614 20.698427 0.799939 1.199909c24.298153 38.697059 36.097256 75.094292 35.697287 109.1917l-23.798191-3.499734c0.599954-27.597902-9.99924-58.495554-31.697591-92.692955L495.462341 428.467433l85.793479-56.395713c-4.59965-6.299521-11.399134-16.498746-20.498442-30.297697l19.99848-13.099004c4.99962 7.599422 11.999088 17.698655 20.898412 30.097712l32.09756-21.098396c-10.599194-2.799787-21.998328-4.59965-34.297393-5.499582L603.954094 311.876295z" p-id="1924"></path><path d="M296.377473 183.886023 329.274972 210.184024 364.472297 187.08578 349.573429 226.482785 382.370936 252.780786 340.374129 250.780938 325.475261 290.177944 314.376105 249.58103 272.279304 247.581182 307.476629 224.482937Z" p-id="1925"></path><path d="M177.986471 305.676766 218.883363 315.676006 240.981683 279.878727 244.081448 321.875535 284.978339 331.774782 246.081296 347.773566 249.281052 389.770374 221.983127 357.672814 183.086084 373.671598 205.184404 337.874319Z" p-id="1926"></path><path d="M455.265396 123.490614 473.863982 161.287741 515.560813 155.188204 485.463101 184.58597 504.061687 222.283105 466.764522 202.784587 436.666809 232.182352 443.76627 190.685506 406.469105 171.086996 448.165935 164.98746Z" p-id="1927"></path><path d="M624.752513 135.989664 625.652445 177.986471 666.049374 190.085552 626.252399 204.084488 627.252323 246.081296 601.754261 212.683834 561.957286 226.582778 585.955462 191.985407 560.4574 158.487954 600.754337 170.587034Z" p-id="1928"></path><path d="M122.09072 466.164567 163.387581 457.965191 168.287209 416.168368 188.885643 452.865578 230.182504 444.566209 201.584678 475.563853 222.183112 512.261064 183.986015 494.662401 155.388189 525.560053 160.287817 483.76323Z" p-id="1929"></path><path d="M727.5447 840.03615 694.647201 813.738149 659.449876 836.836393 674.348744 797.439388 641.551236 771.141386 683.548044 773.141234 698.446912 733.744229 709.546068 774.341143 751.642869 776.340991 716.445544 799.439236Z" p-id="1930"></path><path d="M845.935701 718.245407 805.03881 708.246167 782.94049 744.043446 779.840725 702.046638 738.943834 692.147391 777.840877 676.148607 774.64112 634.151799 801.939046 666.249359 840.836089 650.250575 818.737769 686.047854Z" p-id="1931"></path><path d="M568.656777 900.431559 550.058191 862.634432 508.36136 868.733969 538.459072 839.336203 519.860486 801.639068 557.157651 821.137586 587.255363 791.739821 580.155903 833.236667 617.453068 852.835177 575.756237 858.934713Z" p-id="1932"></path><path d="M399.16966 887.932509 398.269728 845.935701 357.872799 833.836621 397.669774 819.837685 396.66985 777.840877 422.167912 811.238339 461.964887 797.339395 437.966711 831.936765 463.464773 865.434219 423.167836 853.335139Z" p-id="1933"></path><path d="M901.831453 557.757606 860.534592 565.956982 855.634964 607.753805 835.03653 571.056595 793.739669 579.355964 822.337495 548.35832 801.739061 511.661109 839.936157 529.259772 868.533984 498.36212 863.634356 540.158943Z" p-id="1934"></path></svg>