<?xml version="1.0" encoding="utf-8"?>
<!-- Generator: Adobe Illustrator 19.0.0, SVG Export Plug-In . SVG Version: 6.00 Build 0)  -->
<svg version="1.1" id="图层_1" xmlns="http://www.w3.org/2000/svg" xmlns:xlink="http://www.w3.org/1999/xlink" x="0px" y="0px"
	 viewBox="-694 695.3 28 28" style="enable-background:new -694 695.3 28 28;" xml:space="preserve">
<title>过敏药物</title>
<desc>Created with Sketch.</desc>
<g id="Page-1">
	<g id="Artboard" transform="translate(-369.000000, -32.000000)">
		<path id="过敏药物" d="M-301.1,739.7l-5,5l-6.6-6.6l-1.7,1.7l6.6,6.6l-5,5c-1.1,1.1-2.6,1.7-4.1,1.7c-1.6,0-3-0.6-4.1-1.7
			c-1.1-1.1-1.7-2.6-1.7-4.1c0-1.6,0.6-3,1.7-4.1l11.6-11.6c1.1-1.1,2.6-1.7,4.1-1.7c1.6,0,3,0.6,4.1,1.7c1.1,1.1,1.7,2.6,1.7,4.1
			C-299.3,737.1-300,738.6-301.1,739.7 M-299.4,729.7L-299.4,729.7c-1.5-1.5-3.5-2.4-5.8-2.4c-2.3,0-4.3,0.9-5.8,2.4l-11.6,11.6
			c-1.5,1.5-2.4,3.5-2.4,5.8c0,2.3,0.9,4.3,2.4,5.8c1.5,1.5,3.5,2.4,5.8,2.4h0c2.3,0,4.3-0.9,5.8-2.4l11.6-11.6
			c1.5-1.5,2.4-3.5,2.4-5.8C-297,733.3-297.9,731.2-299.4,729.7"/>
	</g>
</g>
</svg>
