<?xml version="1.0" encoding="utf-8"?>
<!-- Generator: Adobe Illustrator 19.0.0, SVG Export Plug-In . SVG Version: 6.00 Build 0)  -->
<svg version="1.1" id="图层_1" xmlns="http://www.w3.org/2000/svg" xmlns:xlink="http://www.w3.org/1999/xlink" x="0px" y="0px"
	 viewBox="-696 694.3 25 30" style="enable-background:new -696 694.3 25 30;" xml:space="preserve">
<title>个人病史</title>
<desc>Created with Sketch.</desc>
<g id="Page-1">
	<g id="Artboard" transform="translate(-302.000000, -32.000000)">
		<path id="个人病史" d="M-386.5,730.3v2.5h-2.5v2h2.5v2.5h2v-2.5h2.5v-2h-2.5v-2.5H-386.5z M-374.5,741.1
			c0-0.1-0.1-0.2-0.2-0.2h-13.5c-0.1,0-0.2,0.1-0.2,0.2v1.5c0,0.1,0.1,0.2,0.2,0.2h13.5c0.1,0,0.2-0.1,0.2-0.2V741.1z M-374.5,745.5
			c0-0.1-0.1-0.2-0.2-0.2h-13.5c-0.1,0-0.2,0.1-0.2,0.2v1.5c0,0.1,0.1,0.2,0.2,0.2h13.5c0.1,0,0.2-0.1,0.2-0.2V745.5z M-388.3,751.8
			h13.5c0.1,0,0.2-0.1,0.2-0.2V750c0-0.1-0.1-0.2-0.2-0.2h-13.5c-0.1,0-0.2,0.1-0.2,0.2v1.5C-388.5,751.7-388.4,751.8-388.3,751.8
			L-388.3,751.8z M-375.5,734.8c-1.1,0-2-0.9-2-2v-3.5l5.5,5.5H-375.5z M-377.6,726.3h-2v2v4.9c0,2,1.6,3.6,3.6,3.6h4.9v15.6
			c0,1-0.8,1.9-1.8,1.9h-17.3c-1,0-1.8-0.8-1.8-1.9v-22.3c0-1,0.8-1.9,1.8-1.9h8.2v-2h-9c-1.7,0-3,1.3-3,3v24c0,1.7,1.3,3,3,3h19
			c1.7,0,3-1.3,3-3v-18.5L-377.6,726.3z"/>
	</g>
</g>
</svg>
