<?xml version="1.0" encoding="utf-8"?>
<!-- Generator: Adobe Illustrator 19.0.0, SVG Export Plug-In . SVG Version: 6.00 Build 0)  -->
<svg version="1.1" id="图层_1" xmlns="http://www.w3.org/2000/svg" xmlns:xlink="http://www.w3.org/1999/xlink" x="0px" y="0px"
	 viewBox="-379 181 200 200" style="enable-background:new -379 181 200 200;" xml:space="preserve">
<path d="M-277,369l-85.5-80.1c-8.7-10.5-13.5-23.9-13.5-37.7c0-32.1,25.9-58.2,57.6-58.2c14.8,0,28.9,5.6,39.4,15.6
	c10.6-10,24.6-15.6,39.4-15.6c31.8,0,57.6,26.1,57.6,58.2c0,13.8-4.8,27.2-13.5,37.7l-0.6,0.6l-66.7,61.2l-8.2-9.1l66.4-60.9
	c6.7-8.2,10.5-18.9,10.5-29.6c0-25.3-20.4-46-45.5-46c-13.5,0-26.2,5.9-34.8,16.2l-4.6,5.6l-4.6-5.6c-8.6-10.3-21.3-16.2-34.8-16.2
	c-25.1,0-45.5,20.6-45.5,46c0,10.6,3.8,21.4,10.5,29.6l84.7,79.3L-277,369z M-283.8,329.3l-61.1-57.4c-4.4-5.9-6.9-13.3-6.9-20.8
	c0-18.6,15-33.7,33.4-33.7v12.3c-11.7,0-21.2,9.6-21.2,21.4c0,4.5,1.5,9.2,4.2,13l60,56.2L-283.8,329.3z M-258.1,242l-10.6-5.9
	c4.3-7.9,11.4-13.6,20-16.1s17.6-1.5,25.4,2.8l-5.9,10.7c-5-2.8-10.7-3.4-16.2-1.8C-250.9,233.4-255.4,237-258.1,242z"/>
</svg>
