<?xml version="1.0" encoding="utf-8"?>
<!-- Generator: Adobe Illustrator 19.0.0, SVG Export Plug-In . SVG Version: 6.00 Build 0)  -->
<svg version="1.1" id="图层_1" xmlns="http://www.w3.org/2000/svg" xmlns:xlink="http://www.w3.org/1999/xlink" x="0px" y="0px"
	 viewBox="-379 181 200 200" style="enable-background:new -379 181 200 200;" xml:space="preserve">
<style type="text/css">
	.st0{fill:#080203;}
</style>
<g id="Page-1_1_">
	<g id="呼吸内科">
		<g id="Page-1">
			<g id="Clip-2">
			</g>
			<path id="Fill-1" class="st0" d="M-203.4,362.5c-2.5,2.3-5.3,1.2-13.6-3.5c-4.8-2.8-9.9-5.8-16.1-7.2c-5.3-1.2-9.2-1.4-12.9-1.4
				c-0.7,0-1.2,0-1.6,0.2c-5.8,0-8.8,0-12.9-3.9c-2.1-1.6-2.1-3.5-0.9-9.2c0.7-4.2,1.6-8.8,0.5-14.1c-1.2-5.8-3.2-9.2-4.8-12.2
				c-1.4-2.8-2.5-4.8-2.8-8.3c-0.5-6.2,8.5-40.6,18.2-51.7c1.6-1.6,2.8-2.3,3.2-2.5c8.1,2.8,35,45.9,44.5,83.1
				C-199.2,347.3-199.5,358.6-203.4,362.5 M-293.1,302.3c-0.2,3.5-1.2,5.3-2.8,8.3c-1.6,3-3.7,6.7-4.8,12.2
				c-1.2,5.3-0.2,9.9,0.5,14.1c0.9,6,0.9,7.6-0.9,9.2c-4.4,3.9-7.4,3.9-12.9,3.9c-3.7,0-8.5,0-14.5,1.4s-11.3,4.4-16.1,7.2
				c-8.5,4.8-11.1,5.8-13.6,3.5c-4.1-3.9-4.4-15.2-0.5-30.5c9.2-37.2,36.4-80.3,44.5-83.1c0.5,0.2,1.6,0.9,3.2,2.3
				c0.2,0.2,0.2,0.5,0.5,0.5c0.5,1.2,1.2,2.3,2.1,3C-300,267.6-292.9,296.7-293.1,302.3 M-202.7,297.9
				c-6.5-14.8-14.5-29.8-22.1-41.1c-12.2-18.2-19.1-20.1-23.1-19.8c-3.9,0.2-7.6,2.3-11.1,6.2c-1.6-0.5-2.8-1.2-3.9-2.5
				c-6.5-8.3-4.6-31.2-1.8-43.6c0.7-3.2-1.4-6.2-4.4-6.9c-3.2-0.7-6.2,1.4-6.9,4.4c-0.7,3.9-7.8,38.3,4.2,53.3
				c1.8,2.3,3.9,3.9,6.2,5.1c-1.2,2.1-2.1,4.4-3.2,6.7c-8.8-4.8-17.3-4.6-24.9,0.5c-1.2-2.5-2.1-4.8-3.2-7.2c2.3-1.2,4.4-3,6-5.3
				c11.8-15,5.1-49.4,4.1-53.3c-0.7-3-3.9-5.1-6.9-4.4s-5.1,3.9-4.4,6.9c2.8,12.5,4.6,35.5-1.8,43.6c-0.9,1.4-2.1,2.1-3.7,2.5
				c-3.5-3.9-7.4-6.2-11.1-6.5c-3.9-0.2-10.4,1.6-23.1,19.8c-7.8,11.1-15.7,26.1-22.1,41.1c-9,21.2-22.1,58.9-7.1,72.7
				c3.5,3.2,7.1,4.4,10.4,4.4c5.8,0,11.5-3.2,16.4-6.2c4.4-2.5,8.8-5.1,13.1-6c4.8-0.9,8.5-0.9,12-0.9c6.5,0,12.9,0,20.7-6.9
				c6.9-6.2,5.5-13.6,4.4-19.8c-0.7-3.5-1.4-6.9-0.7-9.7c0.9-3.9,2.3-6.5,3.7-9c1.6-3.5,3.7-7.2,4.1-12.9c0.5-5.1-2.3-18.5-6.9-32.1
				c3.7-3.2,8.8-5.5,16.6-0.9c-4.8,13.8-7.8,27.9-7.4,33c0.2,6,2.3,9.7,4.1,12.9c1.4,2.5,2.8,5.1,3.7,9c0.5,3.2,0,6.5-0.7,9.7
				c-1.2,6-2.5,13.6,4.4,19.8c7.8,6.9,14.3,6.9,20.7,6.9c3.7-0.2,7.4-0.2,12,0.9c4.6,1.2,9,3.7,13.1,6c5.1,2.8,10.8,6,16.6,6
				c3.5,0,6.9-1.2,10.1-4.2C-180.8,356.7-193.7,319.1-202.7,297.9"/>
		</g>
	</g>
</g>
</svg>
