<?xml version="1.0" encoding="utf-8"?>
<!-- Generator: Adobe Illustrator 19.0.0, SVG Export Plug-In . SVG Version: 6.00 Build 0)  -->
<svg version="1.1" id="图层_1" xmlns="http://www.w3.org/2000/svg" xmlns:xlink="http://www.w3.org/1999/xlink" x="0px" y="0px"
	 viewBox="-695 694.3 27 30" style="enable-background:new -695 694.3 27 30;" xml:space="preserve">
<title>基本描述</title>
<desc>Created with Sketch.</desc>
<g id="Page-1">
	<g id="Artboard" transform="translate(-441.000000, -34.000000)">
		<path id="基本描述" d="M-234.3,750.8h-13.1c-0.4,0-0.9-0.4-0.9-0.9c0-0.6,0.6-0.9,0.9-0.9h12.9c0.6,0,0.9,0.4,0.9,0.9
			C-233.6,750.4-233.8,750.8-234.3,750.8L-234.3,750.8z M-234.3,745.2h-13.1c-0.4,0-0.9-0.4-0.9-0.9s0.6-0.9,0.9-0.9h12.9
			c0.7,0,1.1,0.4,1.1,0.9S-233.8,745.2-234.3,745.2L-234.3,745.2z M-229.6,737.7h-3.7c-2.2,0-3.7-1.5-3.7-3.7v-3.6h-12.9
			c-1.1-0.2-2.1,0.7-2.1,1.9v22.1c0,1.1,0.9,2.1,2.1,2.1h18.4c1.1,0,2.1-0.9,2.1-2.1V737.7L-229.6,737.7z M-235.3,730.8v3
			c0,1.1,0.7,2.1,1.9,2.1h3.6L-235.3,730.8L-235.3,730.8z M-231.7,758.3h-18.2c-2.2,0-4.1-1.9-4.1-4.1v-22.1c0-2.2,1.9-3.7,4.1-3.7
			h12.2h2.1h0.4l7.5,7.5v2.1v16.3C-227.8,756.4-229.4,758.3-231.7,758.3L-231.7,758.3z"/>
	</g>
</g>
</svg>
