<?xml version="1.0" standalone="no"?><!DOCTYPE svg PUBLIC "-//W3C//DTD SVG 1.1//EN" "http://www.w3.org/Graphics/SVG/1.1/DTD/svg11.dtd"><svg class="icon" style="" viewBox="0 0 1024 1024" version="1.1" xmlns="http://www.w3.org/2000/svg" p-id="6036" xmlns:xlink="http://www.w3.org/1999/xlink" width="200" height="200"><defs><style type="text/css"><![CDATA[

]]></style></defs><path d="M512 960c-249.6 0-448-198.4-448-448 0-249.6 198.4-448 448-448 249.6 0 448 198.4 448 448C960 761.6 761.6 960 512 960zM512 128C300.8 128 128 300.8 128 512s172.8 384 384 384 384-172.8 384-384S723.2 128 512 128zM697.6 614.4 544 614.4l0 96c0 12.8-12.8 25.6-32 25.6-19.2 0-32-12.8-32-25.6L480 614.4 326.4 614.4c-12.8 0-25.6-12.8-25.6-32 0-19.2 12.8-32 25.6-32l160 0L486.4 492.8 384 492.8c-12.8 0-25.6-12.8-25.6-32C358.4 448 371.2 435.2 384 435.2l76.8 0L371.2 332.8C358.4 326.4 364.8 313.6 384 300.8c12.8-12.8 32-19.2 38.4-6.4L512 390.4l89.6-96C608 281.6 627.2 288 640 300.8c12.8 12.8 19.2 25.6 12.8 38.4L563.2 435.2 640 435.2c12.8 0 25.6 12.8 25.6 32 0 19.2-12.8 32-25.6 32L544 499.2l0 57.6 160 0c12.8 0 25.6 12.8 25.6 32C723.2 601.6 710.4 614.4 697.6 614.4z" p-id="6037"></path></svg>