<?xml version="1.0" encoding="utf-8"?>
<!-- Generator: Adobe Illustrator 19.0.0, SVG Export Plug-In . SVG Version: 6.00 Build 0)  -->
<svg version="1.1" id="图层_1" xmlns="http://www.w3.org/2000/svg" xmlns:xlink="http://www.w3.org/1999/xlink" x="0px" y="0px"
	 viewBox="-379 181 200 200" style="enable-background:new -379 181 200 200;" xml:space="preserve">
<style type="text/css">
	.st0{fill:#080203;}
</style>
<g id="Page-1_2_">
	<g id="内分泌科">
		<g id="Page-1_3_" transform="translate(4.000000, 0.000000)">
			<path id="Fill-1_1_" class="st0" d="M-348.1,373.4c-2.5,0-4.8-1.6-5.5-4.2c-0.2-0.9-6-20.3,20.3-40.4
				c14.3-10.9,23.8-29.8,23.5-47.3c0-9.7-3.2-23.8-17.8-34.9c-36.2-27.6-32.5-52.1-32.3-53.3c0.7-3.2,3.7-5.3,6.5-4.6
				c3,0.5,5.1,3.5,4.6,6.7c0,0.5-2.3,19.4,27.9,42c14.5,10.9,21.9,26.1,21.9,43.6c0,20.8-11.3,43.4-28.2,56.1
				c-19.6,15.1-16.6,27.6-16.6,28.3c0.9,3-0.7,6.2-3.7,7.2C-347,373.4-347.7,373.4-348.1,373.4"/>
			<g id="Group-5" transform="translate(16.000000, 0.000000)">
				<g id="Clip-4">
				</g>
				<path id="Fill-3" class="st0" d="M-322.8,373.4h-0.7c-3.2-0.5-5.3-3.2-5.1-6.5c2.1-16.4,14.1-23.6,24.5-24.5
					c1.8-0.2,3.7,0,5.3,0.9c15.5,7.6,29.8,0.7,39-6.2c25.6-19.2,42.9-59.8,38.3-90.8c-2-13.5-9.2-31.3-32.3-39.6
					c-40.4-14.3-58,12.5-58.6,13.6l-2.3,3.5l-4.2-0.9c-17.5-4.4-20.3-20.6-19.6-28.4c0.5-3.2,3.2-5.5,6.5-5.1
					c3.2,0.5,5.5,3.2,5.1,6.2c-0.2,1.2-0.7,10.9,7.4,15c7.4-8.5,29.8-28.4,69.3-14.6c22.4,8.1,36.2,24.7,39.7,48.7
					c5.3,34.9-14.1,80.6-42.9,101.8c-16.6,12.2-34.2,14.8-50.1,7.6c-5.1,0.7-12.7,3.7-14.1,14.5C-317.5,371.4-320,373.4-322.8,373.4
					"/>
			</g>
		</g>
	</g>
</g>
</svg>
