<?xml version="1.0" encoding="utf-8"?>
<!-- Generator: Adobe Illustrator 19.0.0, SVG Export Plug-In . SVG Version: 6.00 Build 0)  -->
<svg version="1.1" id="图层_1" xmlns="http://www.w3.org/2000/svg" xmlns:xlink="http://www.w3.org/1999/xlink" x="0px" y="0px"
	 viewBox="-693 694.3 30 30" style="enable-background:new -693 694.3 30 30;" xml:space="preserve">
<title>删除图片</title>
<desc>Created with Sketch.</desc>
<path d="M-678,694.3c-8.3,0-15,6.7-15,15c0,8.3,6.7,15,15,15c8.3,0,15-6.7,15-15C-663,701-669.7,694.3-678,694.3z M-672.8,715.9
	c-0.4,0-0.7-0.2-1-0.4l-4.2-4.2l-4.2,4.2c-0.3,0.3-0.6,0.4-1,0.4c-0.8,0-1.4-0.6-1.4-1.4c0-0.4,0.2-0.7,0.4-1l4.2-4.2l-4.2-4.2
	c-0.3-0.3-0.4-0.6-0.4-1c0-0.8,0.6-1.4,1.4-1.4c0.4,0,0.7,0.2,1,0.4l4.2,4.2l4.2-4.2c0.3-0.3,0.6-0.4,1-0.4c0.8,0,1.4,0.6,1.4,1.4
	c0,0.4-0.2,0.7-0.4,1l-4.2,4.2l4.2,4.2c0.3,0.3,0.4,0.6,0.4,1C-671.4,715.3-672.1,715.9-672.8,715.9z"/>
</svg>
