<?xml version="1.0" encoding="utf-8"?>
<!-- Generator: Adobe Illustrator 19.0.0, SVG Export Plug-In . SVG Version: 6.00 Build 0)  -->
<svg version="1.1" id="图层_1" xmlns="http://www.w3.org/2000/svg" xmlns:xlink="http://www.w3.org/1999/xlink" x="0px" y="0px"
	 viewBox="-694 694.3 28 29" style="enable-background:new -694 694.3 28 29;" xml:space="preserve">
<title>是否缺钙</title>
<desc>Created with Sketch.</desc>
<g id="Page-1">
	<g id="Artboard" transform="translate(-667.000000, -35.000000)">
		<path id="是否缺钙" d="M-20.3,755.2c-0.7-0.9-0.6-2.1-0.6-2.2l0.2-1.5l-1.4,0.4c-1.8,0.5-2.5-0.7-2.6-1.1
			c-0.5-1.2-0.4-2.2,0.4-3c0.5-0.5,1-0.7,1.2-0.8c1.9-0.1,4,0,4.2,0l0.4,0l8.1-8.1l0.3-1.4l0-0.2c-0.1-0.7-0.2-2.2-0.2-2.9
			c0.1-0.5,0.3-0.9,0.6-1.3c0.8-0.8,2.2-0.8,2.5-0.8c2.3,0.7,2,2.8,2,3.1l-0.2,1.3l1.4-0.2c0.9-0.1,1.6,0,2,0.4
			c0.7,0.5,0.8,1.5,0.8,1.6c0.1,1.1-0.1,1.9-0.6,2.4c-0.7,0.7-1.9,0.7-2.1,0.6l0,0c-1.3-0.2-3.4,0-3.4,0l-0.3,0l-7.9,7.9l-0.1,0.2
			c-0.2,0.4-0.2,1.6-0.2,3.5c0,1-0.2,1.8-0.7,2.3l0,0c-0.7,0.7-1.9,0.7-1.9,0.7C-19.4,755.9-19.9,755.6-20.3,755.2 M-0.8,735.3
			c-0.7-0.5-1.5-0.8-2.4-0.9c-0.1-1.1-0.7-3.3-3.5-4.1l-0.2,0l0,0c-0.1,0-2.5-0.1-4.1,1.4c-0.7,0.7-1,1.5-1.2,2.5l0,0.1l0,0
			c0,0,0,2,0.2,3.2l-0.1,0.4l-7,7c-0.8,0-2.6-0.1-4.2,0.1l-0.2,0l0,0c0,0-1.1,0.4-2.1,1.3c-1.4,1.4-1.7,3.2-0.9,5.2
			c0.4,0.9,1.6,2.5,3.8,2.5c0.1,0.7,0.3,1.6,1,2.4c0.7,0.9,1.8,1.4,3.1,1.5c0.1,0,2.1,0.2,3.5-1.2c0.9-0.9,1.3-2.1,1.3-3.8
			c0-1,0-2.2,0-2.6l7-7c0.5,0,1.8-0.1,2.5,0l0,0c0.1,0,2.3,0.3,3.8-1.2c0.9-0.9,1.3-2.2,1.2-3.9C0.6,738.1,0.5,736.4-0.8,735.3"/>
	</g>
</g>
</svg>
