<?xml version="1.0" encoding="utf-8"?>
<!-- Generator: Adobe Illustrator 19.0.0, SVG Export Plug-In . SVG Version: 6.00 Build 0)  -->
<svg version="1.1" id="图层_1" xmlns="http://www.w3.org/2000/svg" xmlns:xlink="http://www.w3.org/1999/xlink" x="0px" y="0px"
	 viewBox="-379 181 200 200" style="enable-background:new -379 181 200 200;" xml:space="preserve">
<style type="text/css">
	.st0{fill:#080203;}
</style>
<g id="Page-1_1_">
	<g id="神经内科">
		<g id="Page-1" transform="translate(0.000000, 11.000000)">
			<g id="Group-3">
				<g id="Clip-2">
				</g>
				<path id="Fill-1" class="st0" d="M-204,274c-9.4,6.4-15,7.6-20.7,7.4c-0.5-0.7-1.1-1.1-2.1-1.4c-7.8-3.2-8.3-18.9-7.6-22.1
					c0.9-3-0.7-6.2-3.7-7.1c-3.2-0.9-6.4,0.7-7.4,3.7c-0.9,2.8-1.8,15.6,3.2,25.8c-2.8,0-6,0.2-9.4,1.1c-7.1,1.4-14,5.7-20.9,9.9
					c-14.5,9-23.9,13.8-34.1,6.4c-4.1-3-8.5-7.6-7.4-13.1c1.1-5.7,8.1-10.8,16.1-12.6c4.1-0.9,9-1.4,13.8-1.6
					c11.3-0.7,23-1.6,29.7-9.4c3.9-4.6,5.5-11,4.8-19.3c-0.2-3-2.8-5.3-5.8-5.3c-0.2,0-0.5,0-0.5,0.5c-3,0.2-5.3,3-5.1,6.2
					c0.5,5.1-0.2,8.5-2.3,10.8c-3.7,4.4-12.9,4.8-21.9,5.5c-5.3,0.2-10.6,0.7-15.7,1.8c-6,1.4-11.3,3.9-15.4,7.4
					c-3-3.7-3.9-10.6-3.9-16.8v-0.5c0-3.2-2.5-5.7-5.8-5.7s-5.8,2.5-5.8,5.7c0,7.1,0.9,18.4,7.4,25.3c-6.5,5.7-15,3.4-18.5,2
					c-9-3.5-18.2-12.6-17.5-24.8c0.2-4.8,2.3-13.1,12.4-22.3c-0.5,4.4-0.2,8.7,0.2,11.5c0.9,5.7,2.5,9,5.5,10.3
					c0.7,0.5,1.6,0.7,2.5,0.7c2.3,0,4.1-1.1,5.1-3.2c1.2-2.3,0.7-5.1-1.2-6.7c-1.6-4.1-1.4-18.6,2.3-21.8c0.7-0.5,0.9-1.2,1.4-1.8
					c8.3-4.6,18.9-9,32.5-13.1c-3.9,4.4-6.7,9-8.3,13.3c-3,7.8-2.5,14.9,1.1,19.1c1.2,1.1,2.8,1.8,4.4,1.8c1.4,0,2.8-0.5,3.9-1.4
					c2.3-2.1,2.5-5.7,0.5-7.8c-0.5-0.7-0.7-4.6,2.3-10.1c2.1-4.1,10.1-17,29.7-19.3c0.5,0,0.9-0.2,1.4-0.5
					c31.1,2.8,53.6,25.5,61.7,43.2C-198,255.4-195.7,268.5-204,274 M-220.5,299.8c-2.8,4.8-9,11-21.6,12.6
					c-10.8,1.4-18.2-2.8-22.1-12.6c5.5-3.2,10.4-6.2,15.2-7.4c7.1-1.6,11.7-0.9,17-0.2c4.4,0.5,9,1.1,14.3,0.2
					C-218.2,294.5-218.9,297-220.5,299.8 M-192.2,240.5c-14.8-32-55.3-59.1-101.3-47c-65.6,17.5-76.9,44.6-77.6,59.1
					c-0.9,15.4,9.4,30.1,24.9,36.1c7.4,3,14.7,3.2,21.4,0.9c0.7,5.1,3.7,11,11.5,17c5.8,4.6,11.3,6.2,17,6.2
					c7.6,0,15.2-3.2,21.9-7.1c5.5,12,15.2,18.4,28.1,18.4c1.8,0,3.5-0.2,5.5-0.5c17.5-2.5,26-11.3,29.9-18.4
					c3.5-6,4.6-11.7,4.4-16.6c2.8-1.4,5.8-3,9-5.3C-185.6,275.2-183.5,258.8-192.2,240.5"/>
			</g>
			<path id="Fill-4" class="st0" d="M-269.1,221.6c-3,0.5-5.1,3.5-4.6,6.7c0.5,3,3.5,5.1,6.7,4.6c13.3-2.3,26.5-2.5,35.9,20.2
				c0.9,2.1,3,3.4,5.3,3.4c0.7,0,1.4,0,2.3-0.2c2.8-1.4,4.1-4.6,3-7.4C-233,219.5-252.1,218.6-269.1,221.6"/>
		</g>
	</g>
</g>
</svg>
