<?xml version="1.0" encoding="utf-8"?>
<!-- Generator: Adobe Illustrator 19.0.0, SVG Export Plug-In . SVG Version: 6.00 Build 0)  -->
<svg version="1.1" id="图层_1" xmlns="http://www.w3.org/2000/svg" xmlns:xlink="http://www.w3.org/1999/xlink" x="0px" y="0px"
	 viewBox="-694 695.3 28 28" style="enable-background:new -694 695.3 28 28;" xml:space="preserve">
<title>睡眠描述</title>
<desc>Created with Sketch.</desc>
<g id="Page-1">
	<g id="Artboard" transform="translate(-591.000000, -33.000000)">
		<g id="睡眠描述" transform="translate(591.000000, 33.000000)">
			<g id="Group-3" transform="translate(0.000000, 0.018003)">
				<path id="Fill-1" d="M-667,708.3L-667,708.3c-0.6,0-1,0.4-1,1c0,2.1-0.6,4.2-1.6,6c-1.6,2.8-4.2,4.8-7.3,5.6
					c-3.1,0.8-6.3,0.4-9.1-1.2c-2.8-1.6-4.8-4.2-5.6-7.3c-0.8-3.1-0.4-6.3,1.2-9.1c2-3.5,5.6-5.7,9.5-6c0.6,0,1-0.5,0.9-1.1
					c0-0.6-0.5-1-1.1-0.9c-4.6,0.3-8.8,2.9-11.1,7c-1.9,3.2-2.4,7-1.4,10.6c1,3.6,3.3,6.6,6.5,8.5c2.2,1.2,4.5,1.9,7,1.9
					c1.2,0,2.4-0.2,3.6-0.5c3.6-1,6.6-3.3,8.5-6.5c1.2-2.1,1.9-4.5,1.9-7C-666,708.8-666.5,708.3-667,708.3"/>
			</g>
			<path id="Fill-4" d="M-676.8,698h6.4l-7.1,6.1c-0.3,0.3-0.4,0.7-0.3,1.1c0.1,0.4,0.5,0.6,0.9,0.6h9.1c0.6,0,1-0.4,1-1s-0.4-1-1-1
				h-6.4l7.1-6.1c0.3-0.3,0.4-0.7,0.3-1.1c-0.1-0.4-0.5-0.6-0.9-0.6h-9.1c-0.6,0-1,0.4-1,1S-677.4,698-676.8,698"/>
			<path id="Fill-6" d="M-684.9,708.9v1c0,0.6,0.4,1,1,1c0.6,0,1-0.4,1-1v-1c0-0.6-0.4-1-1-1C-684.5,707.9-684.9,708.3-684.9,708.9"
				/>
			<path id="Fill-8" d="M-677.1,708.9v1c0,0.6,0.4,1,1,1c0.6,0,1-0.4,1-1v-1c0-0.6-0.4-1-1-1C-676.7,707.9-677.1,708.3-677.1,708.9"
				/>
			<path id="Fill-10" d="M-681,712.5c-0.3-0.5-0.9-0.6-1.4-0.3c-0.5,0.3-0.6,0.9-0.3,1.4c0.4,0.6,1.3,1.5,2.7,1.5
				c1.4,0,2.4-1,2.7-1.5c0.3-0.5,0.2-1.1-0.3-1.4c-0.5-0.3-1.1-0.2-1.4,0.3c0,0-0.4,0.6-1,0.6C-680.6,713.1-681,712.5-681,712.5"/>
		</g>
	</g>
</g>
</svg>
