<?xml version="1.0" encoding="utf-8"?>
<!-- Generator: Adobe Illustrator 19.0.0, SVG Export Plug-In . SVG Version: 6.00 Build 0)  -->
<svg version="1.1" id="图层_1" xmlns="http://www.w3.org/2000/svg" xmlns:xlink="http://www.w3.org/1999/xlink" x="0px" y="0px"
	 viewBox="-379 181 200 200" style="enable-background:new -379 181 200 200;" xml:space="preserve">
<style type="text/css">
	.st0{fill:#080203;}
</style>
<g id="Page-1_1_">
	<g id="小儿耳鼻-喉科">
		<g id="Page-1" transform="translate(2.000000, 0.000000)">
			<g id="Group-3">
				<path id="Fill-1" class="st0" d="M-200.7,258.9c-5.8-43-31.6-67.2-74.5-69.7c-49.3-3-76.5,22.5-82.5,77.7
					c-1.8,16.1-6.2,20-10.4,23.7c-3.2,2.8-7.4,6.4-7.4,14.3c0,9.7,10.6,10.6,15.7,11h1.2c-1.2,2.1-2.8,4.8-2.1,8.1
					c0.7,3,2.3,4.8,3.7,5.8c-0.5,1.4-0.7,3.5-0.2,5.8c1.4,6.4,6,8,8.3,8.5c-0.2,0.9-0.5,2.1-0.7,3.2c-0.9,4.1-2.8,11.5,5.8,16.8
					c6,3.7,14.1,1.6,21.9-0.7c3.2-0.9,8.3-2.3,10.1-2.1c3,2.1,0.5,11.5,0.5,11.5h9.9c2.1-4.6,3.9-14-3-20.7
					c-5.1-4.6-12.7-2.5-20.7-0.2c-3.7,1.2-10.8,3.2-12.7,2.1c-0.9-0.5-1.2-0.9-1.2-0.9c-0.2-0.5,0.2-2.1,0.5-3.2
					c0.7-2.5,1.4-5.5,0.9-9c-0.9-6.4-6-7.6-8.1-8.1c0.7-1.1,1.8-3.5,1.2-6.4c-0.7-2.8-2.3-4.1-3.7-5.1c1.2-1.8,3-4.6,2.8-8
					c0-3.7-2.1-5.5-4.6-6.9c46.6-32,73.1-3.7,71.7,66.7h8.1c-0.2-13.8,6.5-66.9,23.1-79.8c10.8-8.3,8.5-15.6,2.5-15.6
					c-5.1,0-5.1,13.6-34.3,12c-15.2-0.7-19.8-12.4-43.8-9.4c-14.2,1.6-26.4,18.4-30.6,24.8c-1.8-0.5-3.9-0.7-5.5-0.7
					c-1.6-0.2-3.7-0.5-5.1-0.7c0-1.6,0.9-2.3,3.2-4.4c4.6-3.9,12-10.1,14.3-31.1c5.3-49.2,27.2-70.2,70.5-67.4
					c37.1,2.1,58.6,22.1,63.6,59.6c2.5,18.4-17.5,58.7-25.1,73.8c-1.2,2.1-1.8,3.9-2.5,5.1c-6,12.2-4.2,33.1-4.2,33.8h11.5
					c-0.5-4.4-0.7-20.9,3-29c0.7-1.2,1.6-2.8,2.5-4.8C-218.2,321.7-197.7,280.7-200.7,258.9"/>
			</g>
			<path id="Fill-4" class="st0" d="M-375.4,188.9"/>
			<path id="Fill-6" class="st0" d="M-221.7,284.6c1.6-13.3-3.5-25.8-12.2-29.9c-4.8-2.3-15.4-3.9-29.5,11.3
				c-1.2,1.4-1.2,3.5,0.2,4.8c1.4,1.1,3.5,1.1,4.8-0.2c8.3-8.7,15.9-12.2,21.7-9.7c6.2,2.8,9.7,12.4,8.3,22.5
				c-0.5,5.3-4.1,22.3-24.2,26.2c-1.8,0.5-3.2,2.3-2.8,4.1c0.5,1.6,1.8,2.8,3.5,2.8h0.2C-232,313.1-223.3,297.7-221.7,284.6"/>
		</g>
	</g>
</g>
</svg>
