<?xml version="1.0" encoding="utf-8"?>
<!-- Generator: Adobe Illustrator 19.0.0, SVG Export Plug-In . SVG Version: 6.00 Build 0)  -->
<svg version="1.1" id="图层_1" xmlns="http://www.w3.org/2000/svg" xmlns:xlink="http://www.w3.org/1999/xlink" x="0px" y="0px"
	 viewBox="-379 181 200 200" style="enable-background:new -379 181 200 200;" xml:space="preserve">
<style type="text/css">
	.st0{fill:#080203;}
</style>
<g id="Page-1_1_">
	<g id="小儿骨科">
		<g id="Page-1" transform="translate(9.000000, 0.000000)">
			<g id="Group-3" transform="translate(15.000000, 0.000000)">
				<g id="Clip-2">
				</g>
				<path id="Fill-1" class="st0" d="M-323.3,240.9c-5.1,8.5-5.5,18.7-1.2,26.5c2.8,5.1,9.9,10.8,18.7,11.3h1.2
					c5.5,0,12.9-2.1,19.6-10.6c11.3,1.2,19.1-1.2,24-6.4c4.4-4.8,5.5-12.4,3-21.2c-1.6-6-5.5-11.1-11.1-14.3
					c-3.2-1.8-8.3-3.7-14.5-3c-2.1-8.8-6.4-25.6-10.8-32.7l-9.9,6c4.1,6.7,9,27.2,10.6,34.8c0.5,1.6,1.4,2.8,2.8,3.7s3,1.2,4.6,0.7
					c4.6-1.2,8.8-0.9,12,0.9c2.8,1.6,4.6,4.1,5.5,7.1c0.7,2.8,1.6,7.8-0.7,10.4c-1.4,1.6-5.5,3.9-17,2.3c-2.1-0.5-4.4,0.5-5.5,2.3
					c-4.1,5.8-8.5,8.5-13.4,8.3c-4.6-0.2-8.3-3.2-9.4-5.3c-2.5-4.6-1.4-9.2-0.5-12c1.8-4.4,4.4-6.7,5.1-6.9h-0.5l5.5-3.7
					c0.9-1.8,1.8-4.6-8.1-24.2c-3.5-7.1-10.6-20-16.4-26l-8.1,8.3c6.7,6.4,17.1,27.3,20.5,36.3
					C-319.4,235.4-321.4,237.9-323.3,240.9"/>
			</g>
			<path id="Fill-4" class="st0" d="M-234.8,312.6c1.4-9.2-0.7-16.8-6-21.2c-5.5-4.8-13.8-6-25.3-3.2c-9-8.3-17.3-9-23-7.8
				c-9.2,1.8-15.4,8.5-17.5,14.3c-3,8.1-1.8,16.8,3,24.2c2.5,4.1,6,7.4,9.7,9c-2.3,7.6-9.9,25.1-16.6,39.8l10.4,5.1
				c0.2-0.2,5.5-11.3,10.4-22.8c8.3-19.1,11.3-27.9,5.1-31.3c-0.9-0.5-1.8-0.7-2.8-0.7c-1.2,0-4.1-1.6-6.4-5.3
				c-1.6-2.3-4.1-7.4-1.8-13.6c0.7-2.3,4.1-6,9-6.9c5.1-1.2,10.1,1.2,15,6.7c1.4,1.6,3.7,2.3,5.8,1.6c8.8-2.5,15-2.5,18,0
				s2.8,7.8,2.3,10.8c-0.5,3.2-2.3,6-4.8,8.1c-3.2,2.3-7.4,3.2-12.2,2.5c-1.6-0.2-3.2,0.2-4.6,1.4c-1.2,1.2-1.8,2.8-1.8,4.4
				c0.2,13.4-0.7,34.1-3.9,39.4l9.9,6c4.8-7.8,5.5-28.3,5.5-39.4c6.7-0.5,11.3-2.8,14-5.1C-238.9,325-235.7,319.1-234.8,312.6"/>
			<path id="Fill-6" class="st0" d="M-359.4,196.9C-311.5,262-316.3,304-344,367.8l10.6,4.6c28.8-66.8,34.1-113.3-16.8-182.6
				L-359.4,196.9z"/>
			<path id="Fill-8" class="st0" d="M-255.1,190l-9.2,6.9c48.8,66.8,42.6,109.9,13.1,170.7l10.4,5.1
				C-209.7,309.1-202.8,260.9-255.1,190"/>
		</g>
	</g>
</g>
</svg>
