<?xml version="1.0" encoding="utf-8"?>
<!-- Generator: Adobe Illustrator 19.0.0, SVG Export Plug-In . SVG Version: 6.00 Build 0)  -->
<svg version="1.1" id="图层_1" xmlns="http://www.w3.org/2000/svg" xmlns:xlink="http://www.w3.org/1999/xlink" x="0px" y="0px"
	 viewBox="-379 181 200 200" style="enable-background:new -379 181 200 200;" xml:space="preserve">
<style type="text/css">
	.st0{fill:#080203;}
</style>
<g id="Page-1_2_">
	<g id="小儿口腔科">
		<path id="Page-1_3_" class="st0" d="M-232.1,315.9c-1.6,2.1-2.8,3.9-3.9,5.8c-3.7,5.5-5.8,11.3-7.8,17c-3,7.6-5.8,15-11.1,21.2
			c-1.6,1.8-3,2.1-3.9,1.8c-1.2-0.5-2.3-2.8-2.1-7.1c0.5-8.1,1.4-34.8-9.4-46.3c-3.5-3.7-7.8-5.8-12.7-5.8c-5.1,0-9.2,1.8-12.7,5.8
			c-10.4,11.1-9.9,36.1-9.2,46.3c0.2,4.1-0.9,6.7-2.1,7.1c-0.9,0.2-2.3,0-3.9-1.8c-5.5-6.2-8.1-13.4-11.1-21.2
			c-2.3-5.8-4.6-11.5-7.8-17c-1.2-1.6-2.3-3.7-3.9-5.8c-10.1-14.5-27.4-39.4-21.7-84.7c2.1-15.4,17.5-30.2,31.8-30.4h0.5
			c8.3,0,16.1,3.7,23.3,6.9c6.2,3,11.5,5.5,17.1,5.5c5.3,0.2,10.4-2.3,16.8-5.3c7.4-3.5,15.4-7.4,24-7.1c14.3,0.2,29.7,15,31.8,30.4
			C-204.6,276.8-221.9,301.2-232.1,315.9 M-198.9,229.4c-2.8-21.4-23-40.3-42.9-40.5c-11.1-0.2-21.2,4.4-29,8.1
			c-4.6,2.3-9.2,4.6-11.8,4.4h-0.5h-0.2c-3,0-7.6-2.1-12.2-4.4c-7.8-3.7-17.5-8.1-28.6-8.1c-20.3,0.5-40.1,19.3-42.9,40.5
			c-6.5,50,13.1,77.8,23.5,92.8c1.4,2.1,2.8,3.7,3.7,5.3c2.8,4.6,4.8,9.7,6.9,15.2c3.2,8.3,6.5,17,13.1,24.6
			c4.8,5.3,11.3,7.1,16.8,4.8c6.5-2.5,9.4-9.2,9-18.2v-0.2c-1.2-14.5,0.5-31.5,6.2-37.8c1.2-1.4,2.8-2.1,4.6-2.1
			c1.6,0,3,0.7,4.4,2.1c5.8,6.2,7.6,23.9,6.7,38c-0.5,8.7,3,15.7,9,18.2c1.4,0.7,3.2,0.9,4.8,0.9c4.4,0,8.5-2.1,12.2-5.8
			c6.9-8.1,9.9-16.3,13.1-24.6c2.1-5.5,3.9-10.6,6.9-15.2c0.9-1.4,2.3-3.2,3.7-5.3C-212.2,307.2-192.7,279.3-198.9,229.4"/>
	</g>
</g>
</svg>
