<?xml version="1.0" encoding="utf-8"?>
<!-- Generator: Adobe Illustrator 19.0.0, SVG Export Plug-In . SVG Version: 6.00 Build 0)  -->
<svg version="1.1" id="图层_1" xmlns="http://www.w3.org/2000/svg" xmlns:xlink="http://www.w3.org/1999/xlink" x="0px" y="0px"
	 viewBox="-379 181 200 200" style="enable-background:new -379 181 200 200;" xml:space="preserve">
<style type="text/css">
	.st0{fill:#080203;}
</style>
<g id="Page-1_1_">
	<g id="小儿内科">
		<g id="Page-1">
			<g id="Clip-2">
			</g>
			<path id="Fill-1" class="st0" d="M-198.3,326.7v-21.4c0-8.5-2.8-16.8-7.6-23c-8.7-11.5-20.5-15.7-32.7-12
				c-14.3,4.4-25.5,18.4-26,27.6c-0.2,6.4,0,10.8,0.2,15.7c0.5,6.7,0.9,15-0.2,33.2c-0.7,10.1-10.6,14.7-20,15
				c-9.9,0.2-20.9-4.4-22.1-15.2c-0.2-2.3-0.2-21.4-0.2-36.2c18.2-1.2,31.1-6.2,39.1-15c8.5-9.9,7.6-20.5,7.1-23.7
				c-0.9-6-12.7-36.2-20-54.6c3.2-3,5.3-7.1,5.3-12c0-8.8-7.1-16.1-16.1-16.1c-8.7,0-16.1,7.1-16.1,16.1c0,8.8,7.1,15.9,15.9,16.1
				c9,22.3,18.9,48.1,19.6,52.3c0,1.4,0.9,8.3-4.6,14.7c-6,7.1-17.9,11.1-34.5,11.5c-0.5,0-0.9-0.2-1.4-0.2s-0.9,0-1.4,0.2h-0.9
				c-44.2,0-44.4-19.1-44.6-26.3c0.2-4.6,10.6-28.3,22.1-52.3h0.7c8.7,0,16.1-7.1,16.1-16.1c0-8.8-7.1-16.1-16.1-16.1
				c-8.7,0-16.1,7.1-16.1,16.1c0,4.4,1.8,8.5,4.6,11.3c-9.4,19.3-23.2,49.3-23,56.9c0.5,24.2,18.2,36.6,52.9,37.5
				c0,11.5-0.2,34.3,0.2,37.1c1.6,16.8,17.7,25.3,32.7,25.3h0.7c17.5-0.2,30.1-10.8,31.1-25.6c1.2-18.9,0.7-27.6,0.2-34.5
				c-0.2-4.6-0.5-8.3-0.2-14.3c0.2-4.4,8.1-14.5,18.2-17.5c7.8-2.5,14.7,0.2,20.5,7.8c3.5,4.6,5.3,10.4,5.3,16.4v22.2
				c-5.5,2.5-9.4,8.1-9.4,14.5c0,8.8,7.1,16.1,16.1,16.1c8.7,0,16.1-7.1,16.1-16.1C-187.1,335-191.7,328.7-198.3,326.7"/>
		</g>
	</g>
</g>
</svg>
