<?xml version="1.0" encoding="utf-8"?>
<!-- Generator: Adobe Illustrator 19.0.0, SVG Export Plug-In . SVG Version: 6.00 Build 0)  -->
<svg version="1.1" id="图层_1" xmlns="http://www.w3.org/2000/svg" xmlns:xlink="http://www.w3.org/1999/xlink" x="0px" y="0px"
	 viewBox="-379 181 200 200" style="enable-background:new -379 181 200 200;" xml:space="preserve">
<style type="text/css">
	.st0{fill:#080203;}
</style>
<g id="Page-1_1_">
	<g id="小儿神经-内科">
		<g id="Page-1" transform="translate(0.000000, 7.000000)">
			<g id="Group-3">
				<g id="Clip-2">
				</g>
				<path id="Fill-1" class="st0" d="M-343.1,280.7l1.8,6c8.1,27.3,33.7,46.7,62.5,46.7c28.6,0,54.4-19.3,62.4-46.7l1.8-6l6,2.3
					c0.9,0.5,2.1,0.5,3,0.5c4.4,0,8.1-3.7,8.1-7.8c0-4.8-4.4-8.7-9.4-7.6l-6.2,1.2l-0.7-6.2c-3.2-33.3-30.9-58.4-64.5-58.4
					s-61.5,25.1-64.5,58.4l-0.7,6.2l-6.2-1.2c-5.3-0.9-9.4,3-9.4,7.6c0,4.4,3.7,7.8,8.1,7.8c0.9,0,2.1-0.2,3-0.5L-343.1,280.7z
					 M-279,344.9c-32,0-60.8-20.2-71.6-49.9h-1.2c-10.6,0-19.3-8.5-19.3-19.3c0-9.7,7.6-17.9,16.8-19.1c6-36.8,37.3-63.7,75.3-63.7
					c37.8,0,69.1,26.9,75.3,63.7c9.4,1.1,16.8,9.2,16.8,19.1c0,10.6-8.8,19.3-19.3,19.3h-1.2C-218.2,324.6-247,344.9-279,344.9
					L-279,344.9z"/>
			</g>
			<path id="Fill-4" class="st0" d="M-315.4,253.1c5.1,0,9.2,4,9.2,9s-4.1,9-9.2,9s-9.2-4-9.2-9S-320.5,253.1-315.4,253.1"/>
			<path id="Fill-6" class="st0" d="M-240.3,253.1c5.1,0,9.2,4,9.2,9s-4.1,9-9.2,9c-5.1,0-9.2-4-9.2-9S-245.4,253.1-240.3,253.1"/>
			<path id="Fill-8" class="st0" d="M-279,324.6c-11.1,0-21-7.6-24.2-18.2c-0.9-3,0.9-6.2,3.9-7.1c3-0.9,6.2,0.9,7.1,3.9
				c1.6,6,7.1,9.7,13.1,9.7s11.3-4.1,13.1-9.7c0.9-3,4.1-4.8,7.1-3.9c3,0.9,4.8,4.1,3.9,7.1C-257.8,317.3-268,324.6-279,324.6"/>
		</g>
	</g>
</g>
</svg>
