<?xml version="1.0" encoding="utf-8"?>
<!-- Generator: Adobe Illustrator 19.0.0, SVG Export Plug-In . SVG Version: 6.00 Build 0)  -->
<svg version="1.1" id="图层_1" xmlns="http://www.w3.org/2000/svg" xmlns:xlink="http://www.w3.org/1999/xlink" x="0px" y="0px"
	 viewBox="-379 181 200 200" style="enable-background:new -379 181 200 200;" xml:space="preserve">
<style type="text/css">
	.st0{fill:#080203;}
</style>
<g id="Page-1">
	<g id="小儿外科">
		<path id="Fill-1" class="st0" d="M-198.4,295.3l-61.2,35.3c-3,1.8-6.7,2.3-9.9,1.4c-3.5-0.9-6.2-3.2-8.1-6.2
			c-3.7-6.5-1.6-14.8,4.8-18.2l7.1-4.2c2.3-1.4,3.5-3.9,2.8-6.5s-2.2-3.8-4.7-3.8h-50.6l10.7-26.8h6.4c3,0,5.5-2.5,5.8-5.5
			c1.4-30,19.8-48.2,49.7-48.2h47.2L-198.4,295.3L-198.4,295.3z M-359.7,279.4c0-5.8,3.5-10.6,8.5-12.5l9.7,25.8h-5.1
			C-353.7,292.5-359.7,286.8-359.7,279.4L-359.7,279.4z M-341.7,239h0.5c1.4,0,3.7,1.4,5.5,4.6c0.9,1.6,1.1,5.3,0.9,8.5
			c-2.8-1.8-5.5-3.9-6.4-5.8C-343.4,242.7-342.7,239.5-341.7,239L-341.7,239z M-327,243.6c0.9-1.8,2.3-3.2,3.7-4.2
			c0.5-0.5,1.1-0.7,1.6-0.7c0.2,0,0.5,0,0.2,0.2c0.5,0.2,0.7,1.2,0.9,2.1c0.2,1.4-0.2,3.5-1.1,5.3c-0.7,1.8-3.5,4.2-6.2,6
			C-327.9,249.2-327.9,245.5-327,243.6L-327,243.6z M-319.7,266.2h4.8l-9.9,26.3h-4.8L-319.7,266.2z M-327,266.2l-8.5,22.8
			l-8.5-22.8H-327z M-192.7,201h-52.9c-34.3,0-57.3,20.3-60.7,53.5h-13.6c1.8-1.6,3.7-3.5,4.6-5.5c1.6-3,2.1-6.2,1.8-9.2
			c-0.5-3.5-2.3-6-4.8-7.4s-5.8-1.2-8.7,0.7c-1.6,1.2-3.2,2.8-4.6,4.4c-3.7-5.1-9-7.2-13.3-4.8c-5.1,2.8-6,10.1-2.5,16.8
			c0.9,1.8,2.5,3.5,4.4,5.1h-3.5c-13.6,0-24.6,11.5-24.6,24.9c0,13.6,10.8,24.7,24.6,24.7h60.7c-5.7,7.8-6.7,18.2-1.6,27.2
			c3.5,5.8,8.7,9.9,15,11.5c2.1,0.7,4.4,0.9,6.4,0.9c4.4,0,8.5-1.2,12.2-3.5l63.9-36.9c1.8-1.2,3-3,3-5.1v-91.8
			C-186.9,203.5-189.5,201-192.7,201L-192.7,201z"/>
	</g>
</g>
</svg>
