<?xml version="1.0" encoding="utf-8"?>
<!-- Generator: Adobe Illustrator 19.0.0, SVG Export Plug-In . SVG Version: 6.00 Build 0)  -->
<svg version="1.1" id="图层_1" xmlns="http://www.w3.org/2000/svg" xmlns:xlink="http://www.w3.org/1999/xlink" x="0px" y="0px"
	 viewBox="-379 181 200 200" style="enable-background:new -379 181 200 200;" xml:space="preserve">
<style type="text/css">
	.st0{fill:#080203;}
</style>
<g id="Page-1_1_">
	<g id="小儿眼科">
		<path id="Page-1" class="st0" d="M-261,302.2c12.4-6.7,21-19.8,21-35c0-15.2-8.5-28.3-21-35c27.6,6.7,50.4,26.5,58.7,35
			C-210.6,275.5-233.4,295.5-261,302.2L-261,302.2z M-297,232.4c-12.4,6.7-21,19.8-21,34.8c0,15.2,8.5,28.3,21,35
			c-27.6-6.7-50.4-26.5-58.7-35C-347.4,258.9-324.6,239.1-297,232.4L-297,232.4z M-289.6,252c0,3.7-3,6.7-6.7,6.7s-6.7-3-6.7-6.7
			s3-6.7,6.7-6.7S-289.6,248-289.6,252L-289.6,252z M-190.1,263.2c-1.8-1.8-40.1-44.5-88.9-44.5s-87.3,42.8-88.9,44.5l-3.2,3.9
			l3.2,3.9c1.8,1.8,40.1,44.5,88.9,44.5s87.1-42.8,88.9-44.5l3.2-3.9L-190.1,263.2z"/>
	</g>
</g>
</svg>
