<?xml version="1.0" encoding="utf-8"?>
<!-- Generator: Adobe Illustrator 19.0.0, SVG Export Plug-In . SVG Version: 6.00 Build 0)  -->
<svg version="1.1" id="图层_1" xmlns="http://www.w3.org/2000/svg" xmlns:xlink="http://www.w3.org/1999/xlink" x="0px" y="0px"
	 viewBox="-379 181 200 200" style="enable-background:new -379 181 200 200;" xml:space="preserve">
<style type="text/css">
	.st0{fill:#060001;}
</style>
<g id="XMLID_625_">
	<path id="XMLID_640_" class="st0" d="M-269.2,292c-3.5,0-6.2,1.4-8.5,3.7l-0.9,0.9l-0.9-0.9c-2.3-2.3-5.5-3.7-8.5-3.7
		c-3.5,0-6.2,1.4-8.5,3.7c-4.8,4.6-4.8,12.2,0,17.1L-279,331l18.2-18.2c4.8-4.6,4.8-12.2,0-17.1C-262.9,293.4-266.1,292-269.2,292z
		 M-265.9,307.9l-13.1,13.4l-13.1-13.4c-2.1-2.1-2.1-5.5,0-7.6c0.9-1.2,2.3-1.6,3.7-1.6c1.6,0,2.8,0.7,3.5,1.6l5.8,6l5.8-6
		c2.1-2.1,5.5-2.1,7.4,0C-263.8,302.4-263.8,305.9-265.9,307.9z"/>
	<path id="XMLID_631_" class="st0" d="M-233.9,192.9h-90.3c-5.5,0-10.1,4.6-10.1,10.1v35.9h110.6V203
		C-223.7,197.5-228.3,192.9-233.9,192.9z M-311.2,229.7v-25.3h9.2v25.3H-311.2z M-297.4,204.4h9.2v25.3h-9.2V204.4z M-283.6,229.7
		v-25.3h9.2v25.3H-283.6z M-269.8,204.4h9.2v25.3h-9.2V204.4z M-256,229.7v-25.3h9.2v25.3H-256z M-322.8,204.4h6.9v25.3h-6.9V204.4z
		 M-235.2,229.7h-6.9v-25.3h6.9V229.7z"/>
	<path id="XMLID_626_" class="st0" d="M-334.2,277v66v24c0,5.8,4.6,10.1,10.1,10.1h90.3c5.5,0,10.1-4.6,10.1-10.1v-24v-66v-33.5
		h-110.6L-334.2,277L-334.2,277z M-323,287.3h88v46.1h-88V287.3z M-235,366.1h-88v-23.5h88V366.1z M-235,252.8v25.3h-88v-25.3H-235z
		"/>
</g>
</svg>
