<?xml version="1.0" encoding="utf-8"?>
<!-- Generator: Adobe Illustrator 19.0.0, SVG Export Plug-In . SVG Version: 6.00 Build 0)  -->
<svg version="1.1" id="图层_1" xmlns="http://www.w3.org/2000/svg" xmlns:xlink="http://www.w3.org/1999/xlink" x="0px" y="0px"
	 viewBox="-379 181 200 200" style="enable-background:new -379 181 200 200;" xml:space="preserve">
<style type="text/css">
	.st0{fill:#050001;}
</style>
<g id="Page-1_1_">
	<g id="新生儿科">
		<g id="Page-1" transform="translate(12.000000, 0.000000)">
			<path id="Fill-1" class="st0" d="M-307.8,233.2c-2.3,0-4.2,1.9-4.2,4.2s1.9,4.2,4.2,4.2c2.3,0,4.2-1.9,4.2-4.2
				S-305.5,233.2-307.8,233.2"/>
			<path id="Fill-3" class="st0" d="M-273.2,233.2c-2.3,0-4.2,1.9-4.2,4.2s1.9,4.2,4.2,4.2c2.3,0,4.2-1.9,4.2-4.2
				S-270.9,233.2-273.2,233.2"/>
			<path id="Fill-5" class="st0" d="M-281.5,254.1c-1.8-0.5-3.7,0.5-4.2,2.3c-0.7,2.4-2.8,4-5.3,4s-4.6-1.7-5.3-4
				c-0.5-1.8-2.4-2.9-4.2-2.3c-1.8,0.5-2.8,2.4-2.3,4.2c1.5,5.3,6.4,9,11.8,9c5.5,0,10.3-3.7,11.8-9
				C-278.7,256.5-279.7,254.6-281.5,254.1"/>
			<g id="Group-9">
				<g id="Clip-8">
				</g>
				<path id="Fill-7" class="st0" d="M-245.3,322.3l-30.7-30.9l35.5-35.7c1.7,8,2.7,16.4,2.7,25.3
					C-237.8,296.1-240.6,310.2-245.3,322.3L-245.3,322.3z M-291,361.8c-29.3,0-53.2-36.2-53.2-80.8c0-9.6,1.1-18.7,3.1-27.3
					l86.1,86.6C-264.4,353.6-277.1,361.8-291,361.8L-291,361.8z M-291,200.2c18,0,34,13.7,43.6,34.7l-2.6,2.6
					c-1.4-1.7-3.4-2.9-5.7-3.4c-3-17.1-17.7-29.7-35.3-29.7s-32.3,12.6-35.3,29.7c-1.7,0.3-3.2,1.1-4.5,2.1l-3.1-3.1
					C-324.2,213.3-308.6,200.2-291,200.2L-291,200.2z M-285,282.4l9.4-9.4l0,0l26-26.2c0.6-0.3,1-0.8,1.3-1.3l3.6-3.7
					c0.8,2.1,1.5,4.2,2.1,6.3l-38.3,38.5L-285,282.4z M-279.9,267.6c-5.8,2.4-12.4,2.8-18.5,1.2l-27.5-27.6c0.6-0.3,1.3-0.5,1.9-0.3
					c0.9,0.2,1.9,0,2.7-0.6c0.8-0.6,1.3-1.5,1.3-2.4c1.4-15.1,13.8-26.5,29-26.5c15.1,0,27.6,11.4,29,26.5c0.1,1,0.6,1.8,1.3,2.4
					c0.8,0.6,1.7,0.8,2.7,0.6c1.3-0.3,2.5,0.5,3.1,1.6L-279.9,267.6z M-290.7,276.7c0.6,0,1.2-0.1,1.9-0.1l-1,1L-290.7,276.7z
					 M-251.2,334.4l-87.8-88.3c0.7-2.1,1.4-4.2,2.2-6.2l33,33.1c0.3,0.8,1,1.5,1.8,1.8l18.8,18.9l35,35.1
					C-249.2,330.9-250.2,332.7-251.2,334.4L-251.2,334.4z M-291,188.9c-35.6,0-64.5,41.3-64.5,92.1s28.9,92.1,64.5,92.1
					s64.5-41.3,64.5-92.1S-255.4,188.9-291,188.9L-291,188.9z"/>
			</g>
		</g>
	</g>
</g>
</svg>
