<?xml version="1.0" encoding="utf-8"?>
<!-- Generator: Adobe Illustrator 19.0.0, SVG Export Plug-In . SVG Version: 6.00 Build 0)  -->
<svg version="1.1" id="图层_1" xmlns="http://www.w3.org/2000/svg" xmlns:xlink="http://www.w3.org/1999/xlink" x="0px" y="0px"
	 viewBox="-379 181 200 200" style="enable-background:new -379 181 200 200;" xml:space="preserve">
<style type="text/css">
	.st0{fill:#080203;}
</style>
<g id="Page-1_1_">
	<g id="心血管内科">
		<g id="Page-1" transform="translate(0.000000, 5.000000)">
			<g id="Clip-2">
			</g>
			<path id="Fill-1" class="st0" d="M-209,268.9l-6.9,7.1h-38.5c-1.8,0-3.7,0.9-4.8,2.8l-8.5,14.3l-17.3-42.6
				c-0.9-2.1-2.8-3.5-5.1-3.5c-2.1,0-4.4,1.2-5.3,3.2l-13.4,26.5h-33.3l-7.6-7.8c-13.8-14-13.8-37.1,0-51.1
				c6.7-6.9,15.5-10.6,25.2-10.6c9.5,0,18.5,3.7,25.2,10.6l20.3,20.5l20.3-20.5c6.7-6.9,15.5-10.6,25.2-10.6
				c9.2,0,18.5,3.7,25.2,10.6C-195.1,231.8-195.1,254.8-209,268.9L-209,268.9z M-330.8,288h25.8c2.1,0,4.2-1.4,5.1-3.2l9.2-18.4
				l16.8,41.7c0.7,1.8,2.8,3.2,4.8,3.5h0.5c2.1,0,3.9-0.9,4.6-3l12.5-21.2h24l-52.1,53L-330.8,288z M-200.6,209.4
				c-9-9-20.8-14-33.2-14s-24.5,5.1-33.2,14l-12,12.4l-12-12.4c-9-9-20.8-14-33.2-14s-24.5,5.1-33.2,14c-18.2,18.7-18.2,48.8,0,67.5
				l78.2,79.7l78.7-79.9C-182.4,258.3-182.4,228.1-200.6,209.4L-200.6,209.4z"/>
		</g>
	</g>
</g>
</svg>
