<?xml version="1.0" encoding="utf-8"?>
<!-- Generator: Adobe Illustrator 19.0.0, SVG Export Plug-In . SVG Version: 6.00 Build 0)  -->
<svg version="1.1" id="图层_1" xmlns="http://www.w3.org/2000/svg" xmlns:xlink="http://www.w3.org/1999/xlink" x="0px" y="0px"
	 viewBox="-694 695.3 28 28" style="enable-background:new -694 695.3 28 28;" xml:space="preserve">
<title>饮食描述</title>
<desc>Created with Sketch.</desc>
<g id="Page-1">
	<g id="Artboard" transform="translate(-516.000000, -32.000000)">
		<g id="饮食描述" transform="translate(516.000000, 32.000000)">
			<path id="Fill-1" d="M-667.8,713.1c0,0.2-0.1,4.6-6.6,6.4c-0.4,0.1-0.6,0.5-0.6,0.8v1.2H-685v-1.2c0-0.4-0.3-0.7-0.6-0.8
				c-6.4-1.8-6.6-6.2-6.6-6.4v-4.2h24.5L-667.8,713.1z M-666.9,707.1h-19.4l19.2-6c0.5-0.1,0.7-0.6,0.6-1.1
				c-0.1-0.5-0.6-0.7-1.1-0.6l-24.3,7.7c0,0,0,0-0.1,0h-1c-0.5,0-0.9,0.4-0.9,0.9v5.1c0,0.2,0.1,5.6,7.2,7.9v1.4
				c0,0.5,0.4,0.9,0.9,0.9h11.8c0.5,0,0.9-0.4,0.9-0.9V721c7.1-2.3,7.2-7.7,7.2-7.9V708C-666,707.5-666.4,707.1-666.9,707.1
				L-666.9,707.1z"/>
			<path id="Fill-3" d="M-689.7,712.4h19.2c0.5,0,0.9-0.4,0.9-0.9c0-0.5-0.4-0.9-0.9-0.9h-19.2c-0.5,0-0.9,0.4-0.9,0.9
				C-690.6,712-690.2,712.4-689.7,712.4"/>
			<path id="Fill-5" d="M-693,704.7c0.1,0,0.2,0,0.3,0l24.3-7.7c0.5-0.1,0.7-0.6,0.6-1.1c-0.1-0.5-0.6-0.7-1.1-0.6l-24.3,7.7
				c-0.5,0.1-0.7,0.6-0.6,1.1C-693.7,704.5-693.4,704.7-693,704.7"/>
		</g>
	</g>
</g>
</svg>
