<?xml version="1.0" encoding="utf-8"?>
<!-- Generator: Adobe Illustrator 19.0.0, SVG Export Plug-In . SVG Version: 6.00 Build 0)  -->
<svg version="1.1" id="图层_1" xmlns="http://www.w3.org/2000/svg" xmlns:xlink="http://www.w3.org/1999/xlink" x="0px" y="0px"
	 viewBox="-693 694.3 30 30" style="enable-background:new -693 694.3 30 30;" xml:space="preserve">
<title>已完成</title>
<desc>Created with Sketch.</desc>
<g id="Page-1">
	<g id="Artboard" transform="translate(-913.000000, -33.000000)">
		<path id="已完成" d="M232.6,749.1c0.3,0,0.7-0.1,0.9-0.4l10-10c0.5-0.5,0.5-1.4,0-1.9c-0.5-0.5-1.4-0.5-1.9,0l-9,9l-4-4
			c-0.5-0.5-1.4-0.5-1.9,0c-0.5,0.5-0.5,1.4,0,1.9l5,5C231.9,748.9,232.2,749.1,232.6,749.1 M245.6,731.7c-2.8-2.8-6.6-4.4-10.6-4.4
			s-7.8,1.6-10.6,4.4c-2.8,2.8-4.4,6.6-4.4,10.6c0,2.9,0.8,5.7,2.4,8.2c0.3,0.5,1,0.6,1.4,0.3c0.5-0.3,0.6-1,0.3-1.4
			c-1.4-2.1-2.1-4.5-2.1-7c0-7.1,5.8-12.9,12.9-12.9s12.9,5.8,12.9,12.9c0,7.1-5.8,12.9-12.9,12.9c-2.4,0-4.7-0.6-6.7-1.9
			c-0.5-0.3-1.1-0.1-1.4,0.4c-0.3,0.5-0.1,1.1,0.4,1.4c2.3,1.4,5,2.2,7.7,2.2c4,0,7.8-1.6,10.6-4.4c2.8-2.8,4.4-6.6,4.4-10.6
			S248.4,734.5,245.6,731.7"/>
	</g>
</g>
</svg>
