<?xml version="1.0" encoding="utf-8"?>
<!-- Generator: Adobe Illustrator 19.0.0, SVG Export Plug-In . SVG Version: 6.00 Build 0)  -->
<svg version="1.1" id="图层_1" xmlns="http://www.w3.org/2000/svg" xmlns:xlink="http://www.w3.org/1999/xlink" x="0px" y="0px"
	 viewBox="-695 692.3 26 34" style="enable-background:new -695 692.3 26 34;" xml:space="preserve">
<style type="text/css">
	.st0{fill:#020202;}
</style>
<title>专家简介</title>
<desc>Created with Sketch.</desc>
<g id="Page-1">
	<g id="Artboard" transform="translate(-164.000000, -31.000000)">
		<path id="专家简介" class="st0" d="M-510.2,748.9h-15c-0.6,0-1.1,0.5-1.1,1c0,0.6,0.5,1,1.1,1h15c0.6,0,1.1-0.5,1.1-1
			C-509.1,749.4-509.6,748.9-510.2,748.9L-510.2,748.9z M-510.2,744.5h-15c-0.6,0-1.1,0.5-1.1,1c0,0.6,0.5,1,1.1,1h15
			c0.6,0,1.1-0.5,1.1-1C-509.1,745-509.6,744.5-510.2,744.5L-510.2,744.5z M-526.3,736.8c0,0.6,0.5,1,1.1,1h15c0.6,0,1.1-0.5,1.1-1
			c0-0.6-0.5-1-1.1-1h-15C-525.8,735.8-526.3,736.3-526.3,736.8L-526.3,736.8z M-510.2,740.2h-15c-0.6,0-1.1,0.5-1.1,1
			c0,0.6,0.5,1,1.1,1h15c0.6,0,1.1-0.5,1.1-1C-509.1,740.6-509.6,740.2-510.2,740.2L-510.2,740.2z M-507.2,754.6h-21.7v-29.2h15.7
			v4.6c0,0.6,0.5,1,1.1,1h4.9L-507.2,754.6L-507.2,754.6L-507.2,754.6z M-511,726.8l2.2,2.1h-2.2V726.8L-511,726.8z M-505,729.9
			L-505,729.9C-505,729.9-505,729.9-505,729.9L-505,729.9c0-0.2-0.1-0.3-0.1-0.4c0,0,0-0.1-0.1-0.1c0,0,0,0,0,0c0,0,0,0,0-0.1
			c0,0,0,0,0,0c0,0,0,0,0,0c0,0,0,0,0,0c0,0,0,0,0,0c0,0,0,0,0,0l-5.9-5.6c-0.2-0.2-0.4-0.3-0.6-0.3c0,0-0.1,0-0.1,0h0h0h-17.9
			c-0.6,0-1.1,0.5-1.1,1v31.3c0,0.6,0.5,1,1.1,1h23.8c0.6,0,1.1-0.5,1.1-1L-505,729.9C-505,730-505,729.9-505,729.9L-505,729.9z"/>
	</g>
</g>
</svg>
